<svg id="Layer_1" data-name="Layer 1" xmlns="http://www.w3.org/2000/svg" viewBox="0 0 500 500"><defs><style>.cls-1{fill:#154dff;}</style></defs><g id="_222626ff" data-name="#222626ff"><path class="cls-1" d="M473,294.31c-.75-45.32-.26-90.65-.22-136,0-24.91-21.45-47.14-46.29-48.26-24-.17-48.07.18-72.09,0-.26-26.28.31-52.57,0-78.85,0-14.13-12-27.15-26.24-27.54-59,0-118-.12-177,0-14.27.25-26.54,13.37-26.36,27.56-.27,26.23.08,52.48,0,78.73-24,.35-48-.06-72,.13-24.88,1-46.51,23.41-46.48,48.33Q6.23,287.68,6.23,417A51.72,51.72,0,0,0,19.8,452.24a52,52,0,0,0,37.45,15.27c76.27.41,152.54-.12,228.81-.14,9.76.34,10.74-15.63,1.09-16.59-71.82.05-143.67.35-215.51.11-9.84-.32-20.23.94-29.45-3.35-9.3-4.11-15.86-13.05-18.28-22.79-1.42-8-.95-16.23-1-24.35q-.18-69.88,0-139.77c48.8,0,97.6.22,146.4-.17.05-10.74-.17-21.49.24-32.22.59-11,10.23-20.77,21.35-20.91,32.09-.34,64.19.33,96.3,0,11.32-.31,21.52,9.43,22.2,20.64.4,10.84,0,21.71.26,32.56,48.78.17,97.57,0,146.34.12.08,13.44-.14,26.88,0,40.32-.15,6.11,7.56,10.35,12.63,6.85C473.52,305.16,473,299,473,294.31ZM188.74,54.87c34.26.31,68.53.16,102.79.28a10.83,10.83,0,0,1,11.14,10.34c.26,14.78-.05,29.59.22,44.39-42.17.38-84.35.28-126.53.13-.15-14.45.22-28.92-.06-43.38C175.67,60,182.17,54,188.74,54.87Zm268,109.7a25,25,0,0,1-25,25H47.88a25,25,0,0,1-25-25V153a25,25,0,0,1,25-25H431.71a25,25,0,0,1,25,25Z"/><path class="cls-1" d="M189.15,223.94c32.16-1.45,64.64-.39,96.93-.56a6.4,6.4,0,0,1,7.31,6.82c-.16,14.75,0,29.49-.08,44.23.18,3.81-3.56,6.67-7.19,6.31-31.66,0-63.32.27-95-.16a5.63,5.63,0,0,1-5.27-6.08q-.06-21.63-.16-43.25C185.49,228.4,186.23,225.14,189.15,223.94Z"/></g><path class="cls-1" d="M493,380.86a103,103,0,0,0-52.72-77.48,103.41,103.41,0,0,0-46.15-12.58h-7.56c-1,.16-2,.19-2.94.26a102.82,102.82,0,0,0-95.2,95.13,28.86,28.86,0,0,1-.27,2.95v7.42a102.94,102.94,0,0,0,63.36,92,102.06,102.06,0,0,0,37.4,7.82c4-.34,8,.05,11.92-.44a103,103,0,0,0,80.94-54.09,103.58,103.58,0,0,0,12-45.09v-6.3C493.58,387.26,493.4,384.05,493,380.86ZM474.15,421.7a87.74,87.74,0,1,1,2.21-48.48A88.15,88.15,0,0,1,474.15,421.7Z"/><path class="cls-1" d="M390.23,311.7a3.18,3.18,0,0,1,3.89,2.95q0,4.83,0,9.66a3.16,3.16,0,0,1-6.31,0q0-4.83,0-9.66A3.13,3.13,0,0,1,390.23,311.7Z"/><path class="cls-1" d="M350.93,322.15a3.18,3.18,0,0,1,3.68,1.5c1.57,2.75,3.16,5.5,4.71,8.26a3.16,3.16,0,0,1-5.45,3.18q-2.46-4.24-4.86-8.51A3.17,3.17,0,0,1,350.93,322.15Z"/><path class="cls-1" d="M430.32,322.58a3.19,3.19,0,0,1,3.54,4.33c-1.61,2.88-3.34,5.71-5,8.56a3.16,3.16,0,0,1-5.45-3.19c1.6-2.72,3.19-5.45,4.79-8.16A3.23,3.23,0,0,1,430.32,322.58Z"/><path class="cls-1" d="M402,401.57a13.63,13.63,0,0,0-6.14-20.66q0-22.55,0-45.09a4.67,4.67,0,0,0-9.33,0c0,15,0,30,0,45a13.57,13.57,0,0,0-9.07,12c-7,2.3-14,4.53-20.93,6.81a4.66,4.66,0,0,0,2.89,8.86l20.71-6.72a13.66,13.66,0,0,0,10.47,5.4,13.52,13.52,0,0,0,9.9-3.84,310.2,310.2,0,0,0,41.9,34.55A311,311,0,0,0,402,401.57Zm-22.68-9.36a11.9,11.9,0,0,1,7.2-9.48c0,2.38,0,4.77,0,7.15C384.1,390.64,381.7,391.43,379.3,392.21Zm6.91,12.13a12.22,12.22,0,0,1-4.25-3.18q4.68-1.55,9.39-3.05a7.14,7.14,0,0,0,2.78-1.13c1.67,1.69,3.33,3.38,5,5.06A11.82,11.82,0,0,1,386.21,404.34Zm8.63-8a5.22,5.22,0,0,0,1-3.94c-.07-3.15,0-6.3,0-9.44a11.84,11.84,0,0,1,6.19,6.8,11.66,11.66,0,0,1-1.49,10.61C398.59,399.21,396.77,397.59,394.84,396.31Z"/><path class="cls-1" d="M322.36,350.53a3.3,3.3,0,0,1,2.45.46c2.71,1.61,5.44,3.19,8.14,4.81a3.16,3.16,0,0,1-3.32,5.37c-2.84-1.69-5.71-3.31-8.52-5A3.19,3.19,0,0,1,322.36,350.53Z"/><path class="cls-1" d="M458.7,351.39a3.2,3.2,0,0,1,3.72,2.19,3.16,3.16,0,0,1-1.5,3.67c-2.76,1.57-5.5,3.16-8.26,4.72a3.18,3.18,0,0,1-4.49-1.7,3.24,3.24,0,0,1,1.69-4C452.83,354.7,455.64,352.78,458.7,351.39Z"/><path class="cls-1" d="M311.23,390.58c3.39-.31,6.82-.05,10.23-.14a3.16,3.16,0,1,1,.2,6.32c-3.22,0-6.44,0-9.66,0a3.15,3.15,0,0,1-.77-6.17Z"/><path class="cls-1" d="M459.29,390.6c3.38-.36,6.82-.05,10.22-.16a3.21,3.21,0,0,1,3.43,2.95,3.16,3.16,0,0,1-3,3.36c-3.22,0-6.44,0-9.66,0a3.16,3.16,0,0,1-1-6.16Z"/><path class="cls-1" d="M330,425a3.17,3.17,0,0,1,2.36,5.82q-4.12,2.37-8.25,4.71a3.16,3.16,0,0,1-3.87-4.89,17.29,17.29,0,0,1,3-1.91C325.49,427.47,327.63,426,330,425Z"/><path class="cls-1" d="M449.82,425.74a3.17,3.17,0,0,1,2.61.38c2.71,1.61,5.44,3.19,8.15,4.8a3.16,3.16,0,0,1-3.33,5.38c-2.83-1.7-5.72-3.3-8.51-5.06A3.18,3.18,0,0,1,449.82,425.74Z"/><path class="cls-1" d="M355.25,450.23a3.18,3.18,0,0,1,3.41,4.44c-1.6,2.83-3.29,5.62-4.94,8.43A3.16,3.16,0,0,1,348.2,460c1.58-2.73,3.2-5.44,4.79-8.16A3.23,3.23,0,0,1,355.25,450.23Z"/><path class="cls-1" d="M424.77,450.69a3.18,3.18,0,0,1,3.36,1.56c1.58,2.74,3.15,5.5,4.71,8.25a3.16,3.16,0,1,1-5.53,3.06c-1.59-2.8-3.22-5.57-4.78-8.39A3.17,3.17,0,0,1,424.77,450.69Z"/><path class="cls-1" d="M390,459.92a3.18,3.18,0,0,1,4.11,2.78c0,3.22,0,6.44,0,9.66a3.19,3.19,0,0,1-3.17,3.23,3.14,3.14,0,0,1-3.14-3c0-3.22,0-6.45,0-9.67A3.13,3.13,0,0,1,390,459.92Z"/></svg>