<svg id="Layer_1" data-name="Layer 1" xmlns="http://www.w3.org/2000/svg" viewBox="0 0 500 500"><defs><style>.cls-1{fill:#154dff;}</style></defs><g id="_1b313eff" data-name="#1b313eff"><path class="cls-1" d="M35.48,50.61a54.69,54.69,0,0,1,9-.56c137.56.14,275.17-.28,412.67.23,20.63-1.64,38.93,17.82,36.92,38.22q-.11,128.4,0,256.8c0,18-16,34.3-34.07,34.39q-209.61.07-419.21,0C25.4,380,10.9,368.58,7,353.76c-1.48-4.88-1.3-10-1.26-15.05V84.7C5.88,68.16,19.11,53,35.48,50.61m2,13.27C27.16,65.57,19,75.23,19.16,85.68q0,129.33,0,258.65c-.22,11.58,10,22,21.56,22q209.21.06,418.41,0c11.58,0,21.77-10.44,21.55-22q0-129.31,0-258.65c.29-12-10.57-22.68-22.53-22.06q-205.41,0-410.83,0A81.4,81.4,0,0,0,37.44,63.88Z"/><path class="cls-1" d="M179.12,103.38c-.12-6.71,6.24-12.44,12.87-12q119.56-.06,239.11,0c6.81-.18,12.58,6.22,12.25,12.93q0,77,0,154.08c.28,6.66-5.44,13.09-12.23,12.85q-119.57.09-239.12,0c-6.6.45-13-5.2-12.86-11.91-.11-22.88,0-45.75,0-68.63,14.11-1.05,30.71,3.69,42.25-7,0,13.67-.08,27.34,0,41a6.52,6.52,0,0,0,7.06,6.42q82.68,0,165.35,0a6.61,6.61,0,0,0,7.26-6.43c.16-3.81-3.57-7-7.26-6.75H238.65c-1.58.22-2.88-.67-4.09-1.53,0-26.18.06-52.36,0-78.54.23-5.11-6.38-8.5-10.38-5.31-4.26,3-2.52,8.76-2.84,13.16-11.51-10.63-28.11-6.13-42.19-6.9,0-11.85-.08-23.72,0-35.56m196.31,35.1c-1.66.67-2.1,2.47-1.95,4.1,0,19.59-.06,39.18,0,58.77.3,4.44,6,2.9,9,3.17,2.95-.27,8.67,1.24,8.91-3.19.14-19.57,0-39.16.06-58.74.22-1.76-.53-4-2.56-4.19a108.1,108.1,0,0,0-13.47.08m-62.78,7.94c-2.14,1-1.55,3.64-1.68,5.53.15,16.7-.14,33.41.14,50.1,1,3.73,6,2.08,8.85,2.46,3-.3,8.68,1.3,9-3.12.14-17.38.08-34.78.06-52.16.24-2.38-2.38-3.5-4.38-3.21-4,.2-8.09-.43-12,.4m31.87,7.86c-2,.18-2.59,2.5-2.45,4.2q-.1,21.5.07,43c.63,4.58,6.4,2.62,9.55,3,2.76-.26,8.12,1.17,8.24-3,.13-14.35,0-28.7.05-43-.05-1.52,0-4.05-2-4.16a120.17,120.17,0,0,0-13.42,0M250.07,156c-2,.42-1.84,2.82-1.87,4.38.08,13.72-.1,27.45.09,41.16.1,4.11,5.44,2.77,8.17,3,3.12-.45,7.7,1.34,9.49-2.18.36-14.29.07-28.61.14-42.92a3.11,3.11,0,0,0-3.07-3.68,103.71,103.71,0,0,0-12.95.24m29.52,9.11c-.39,11.19,0,22.4-.18,33.59,0,2-.3,5.12,2.29,5.72,4.68.4,9.4,0,14.09.15.83-1.21,1.88-2.39,1.65-4-.12-11.81.17-23.63-.15-35.43-1.19-3.75-6.14-2-9.09-2.39C285.37,163.14,280.84,161.55,279.59,165.08Z"/><path class="cls-1" d="M121.35,100.88c9.27-3.07,20.33,2.07,23.74,11.26,3.87,8.79-.17,20-8.71,24.35-9.46,5.5-22.85,1-27-9.17C104.45,117.22,110.6,103.94,121.35,100.88Z"/><path class="cls-1" d="M92,161.21c1.54-5.69,7.46-9.1,13.12-9q49.08-.08,98.15-.05a12.52,12.52,0,0,1,12.86,12c.66,6.76-5.2,13.22-12,13.33-14.63.11-29.27,0-43.9.06-2.38-.21-4.79,1.81-4.46,4.3q-.07,75.64,0,151.3c.37,7.77-7.36,14.9-15.09,13.12a12.94,12.94,0,0,1-10.39-12.15c-.23-23.64.17-47.29-.18-70.91-.51-4-7-3.25-6.59.78-.14,23.35,0,46.72-.08,70.07.16,6.4-5.4,12-11.7,12.46A12.91,12.91,0,0,1,98.13,334c-.12-36.48.06-73-.08-109.46-2.58,6.2-3.93,12.86-6.73,19-3.67,7-14.26,8.44-19.74,2.78a12.66,12.66,0,0,1-3.19-13.49Q80.16,197,92,161.21Z"/><path class="cls-1" d="M259.74,284.84c4.8-.33,9.62-.11,14.44-.15-7,19.41-13.71,38.94-21,58.25-2.89,6.66-14.08,3-12.43-4.12C246.63,320.69,253.7,302.92,259.74,284.84Z"/><path class="cls-1" d="M304.48,284.66l13.41,0c-.21,18.89.24,37.81-.23,56.69-1.19,6.8-12.09,6.64-13-.22C304.25,322.34,304.58,303.49,304.48,284.66Z"/><path class="cls-1" d="M348.1,284.68c4.79,0,9.59-.05,14.38.05,6.22,18,13.1,35.88,19.09,54,1.7,7.23-9.64,10.91-12.55,4.1C361.85,323.52,355.13,304,348.1,284.68Z"/><path class="cls-1" d="M219.24,393.05c20.5.07,41,0,61.49.05.13,3.91.11,7.83,0,11.74q-30.76.12-61.54,0C219.2,400.92,219.2,397,219.24,393.05Z"/><path class="cls-1" d="M141,418.54c3-.57,6-.3,9-.34q102.73,0,205.45,0c6-.36,11.82,4.26,12.49,10.28a90.25,90.25,0,0,1,0,10.91c-.58,6.09-6.47,10.84-12.52,10.55q-105.52.06-211.07,0c-8,.48-14-7.48-12.67-15.07C130.66,428.14,133.6,419.94,141,418.54Z"/></g></svg>