<svg id="Layer_1" data-name="Layer 1" xmlns="http://www.w3.org/2000/svg" viewBox="0 0 500 500"><defs><style>.cls-1{fill:#154dff;}</style></defs><path class="cls-1" d="M448.26,51A138.26,138.26,0,0,0,359.73,7.92c-7.75-.72-15.54-.55-23.31-.57H158.15c-7.45,0-14.89-.14-22.3.52a137.77,137.77,0,0,0-83.78,38,139.43,139.43,0,0,0-41.79,82.86c-1.56,11.13-1.13,22.4-1.2,33.61q0,93.85,0,187.7A140.08,140.08,0,0,0,52.25,449.5,138.66,138.66,0,0,0,149,492.65H356a139.11,139.11,0,0,0,62.77-17q-13.74-14-27.52-27.92a101.18,101.18,0,0,1-39.47,7.81q-100,0-200.07,0a101,101,0,0,1-73.18-32.28,102.88,102.88,0,0,1-32.26-73.67q0-8.32,0-16.66-.07-87.24,0-174.5v-1.53c0-7.59-.19-15.21.79-22.77A102.62,102.62,0,0,1,90.66,62.18a100.18,100.18,0,0,1,48.9-17.34c5.85-.49,11.73-.32,17.59-.34h69.66q61,0,122,0a101,101,0,0,1,72.68,32.27A102.83,102.83,0,0,1,453.76,151q.08,91.65,0,183.31V352a105.75,105.75,0,0,1-3.58,28.16A96.91,96.91,0,0,1,445,394.93l27.6,27.61a132.69,132.69,0,0,0,6.07-12,138.64,138.64,0,0,0,11.21-40.25c.58-4.52.93-9.07,1.08-13.62v-209A140.57,140.57,0,0,0,448.26,51Z"/><path class="cls-1" d="M401.24,136.76l-.12.11a28.62,28.62,0,0,1-34.61,4.25c-10.85-6.23-16.48-20.05-13-32.08a28.31,28.31,0,0,1,11.22-15.88,27.73,27.73,0,0,1,13.43-5c13.58-1.67,27.33,7.91,30.53,21.19A28.6,28.6,0,0,1,401.24,136.76Z"/><g id="_fcfdfdff" data-name="#fcfdfdff"><path class="cls-1" d="M443.37,411.6Q407.6,376,371.84,340.36c27.31-39.95,34.09-93,17.31-138.4a153.79,153.79,0,0,0-76.91-85.4c-42.41-21-94.67-20.49-136.62,1.43a153,153,0,0,0-2.29,271.06C206.2,406.67,245.89,412.12,282,402a164.49,164.49,0,0,0,54.74-27.44c23.57,22.85,46.44,46.44,69.53,69.79q13.54,13.68,27.23,27.19A139,139,0,0,0,470,438.11ZM344.49,300.17C330,332,299.25,355.9,264.7,361.8A109.18,109.18,0,0,1,153.11,195.91c17.32-27.61,47.56-46.66,80-50.08,39.94-4.8,81.35,14.42,103.24,48.17C357.19,224.83,360.37,266.51,344.49,300.17Z"/><path class="cls-1" d="M273.29,268.76c-.11-10.92-.14-21.83,0-32.74,12.07-.18,24.18.45,36.2-.31-.12-5.38,0-10.75,0-16.13-12.07,0-24.15.06-36.22,0-.06-11,0-22,0-32.95-5.4,0-10.81.08-16.21-.05-.69,11-.14,22-.26,33-8.69.14-17.38.12-26.06,0-.11-11,.4-22-.25-33-5.41.14-10.82.05-16.23.05,0,11,0,22,0,32.95-12.08.1-24.15,0-36.22,0,0,5.37.06,10.74,0,16.11,12,.79,24.16.14,36.22.33q.21,16.35,0,32.73c-12.06.19-24.18-.48-36.2.34.14,5.34.06,10.69.06,16,12.08,0,24.15,0,36.22,0,0,11,0,21.91,0,32.87,5.33,0,10.65,0,16,0,0-11,.47-21.92.33-32.89q13.11-.12,26.22,0c0,11-.13,21.93.36,32.89,5.32-.07,10.63,0,15.95,0,.07-11,0-21.92.06-32.87,12.07-.08,24.13,0,36.2,0,0-5.35-.05-10.69.08-16C297.47,268.26,285.37,268.94,273.29,268.76Zm-42.63,0c0-10.89,0-21.78,0-32.67,8.72,0,17.42,0,26.14,0-.06,10.9,0,21.79,0,32.68C248.1,268.75,239.39,268.73,230.66,268.72Z"/></g></svg>