<svg id="Layer_1" data-name="Layer 1" xmlns="http://www.w3.org/2000/svg" viewBox="0 0 500 500"><defs><style>.cls-1{fill:#154dff;}.cls-2{fill:#263bf9;}</style></defs><path class="cls-1" d="M454.76,5.1Q250.49,5,46.21,5.07C25.88,4.29,7.79,26.29,5.08,52.84V447.46C7.94,473.36,25.3,495,45.21,494.89q204.78.14,409.57,0c20.17.18,37.83-22.16,40.14-48.57V53.48C492.52,27.15,474.91,4.86,454.76,5.1Zm-.92,462.62H46.16c-11.07.52-21.1-12.76-20.66-27.56q0-190.16,0-380.33C25.17,46.66,33,34.32,42.81,32.61A57.08,57.08,0,0,1,52,32.26q200.94,0,401.88,0C465,31.69,474.9,45,474.49,59.83q0,190.17,0,380.33C474.9,455,464.93,468.27,453.84,467.72Z"/><path class="cls-1" d="M161.79,117.62c-1.93,0-3,1.38-3,4.49V146c0,2.91,1,4.41,3,4.41s3.05-1.37,3.05-4.45V122C164.86,119.11,164.05,117.62,161.79,117.62Zm0,0c-1.93,0-3,1.38-3,4.49V146c0,2.91,1,4.41,3,4.41s3.05-1.37,3.05-4.45V122C164.86,119.11,164.05,117.62,161.79,117.62Zm0,0c-1.93,0-3,1.38-3,4.49V146c0,2.91,1,4.41,3,4.41s3.05-1.37,3.05-4.45V122C164.86,119.11,164.05,117.62,161.79,117.62Zm28,.07h-1.89v14h1.46c3.42,0,4.15-1.91,4.15-5.82v-3.22C193.48,119.64,192.76,117.69,189.76,117.69Zm0,0h-1.89v14h1.46c3.42,0,4.15-1.91,4.15-5.82v-3.22C193.48,119.64,192.76,117.69,189.76,117.69Zm-28-.07c-1.93,0-3,1.38-3,4.49V146c0,2.91,1,4.41,3,4.41s3.05-1.37,3.05-4.45V122C164.86,119.11,164.05,117.62,161.79,117.62Zm0,0c-1.93,0-3,1.38-3,4.49V146c0,2.91,1,4.41,3,4.41s3.05-1.37,3.05-4.45V122C164.86,119.11,164.05,117.62,161.79,117.62Zm28,.07h-1.89v14h1.46c3.42,0,4.15-1.91,4.15-5.82v-3.22C193.48,119.64,192.76,117.69,189.76,117.69Zm0,0h-1.89v14h1.46c3.42,0,4.15-1.91,4.15-5.82v-3.22C193.48,119.64,192.76,117.69,189.76,117.69Zm-28-.07c-1.93,0-3,1.38-3,4.49V146c0,2.91,1,4.41,3,4.41s3.05-1.37,3.05-4.45V122C164.86,119.11,164.05,117.62,161.79,117.62Zm0,0c-1.93,0-3,1.38-3,4.49V146c0,2.91,1,4.41,3,4.41s3.05-1.37,3.05-4.45V122C164.86,119.11,164.05,117.62,161.79,117.62Zm28,.07h-1.89v14h1.46c3.42,0,4.15-1.91,4.15-5.82v-3.22C193.48,119.64,192.76,117.69,189.76,117.69Zm0,0h-1.89v14h1.46c3.42,0,4.15-1.91,4.15-5.82v-3.22C193.48,119.64,192.76,117.69,189.76,117.69Zm-28-.07c-1.93,0-3,1.38-3,4.49V146c0,2.91,1,4.41,3,4.41s3.05-1.37,3.05-4.45V122C164.86,119.11,164.05,117.62,161.79,117.62Zm0,0c-1.93,0-3,1.38-3,4.49V146c0,2.91,1,4.41,3,4.41s3.05-1.37,3.05-4.45V122C164.86,119.11,164.05,117.62,161.79,117.62Zm28,.07h-1.89v14h1.46c3.42,0,4.15-1.91,4.15-5.82v-3.22C193.48,119.64,192.76,117.69,189.76,117.69Zm151-.07c-1.93,0-3,1.38-3,4.49V146c0,2.91,1,4.41,3,4.41s3.05-1.37,3.05-4.45V122C343.82,119.11,343,117.62,340.75,117.62Zm27.49.07h-1.41V130h1.11c3,0,4.24-.94,4.24-5.31v-2.26C372.18,119.25,371.55,117.69,368.24,117.69Zm0,0h-1.41V130h1.11c3,0,4.24-.94,4.24-5.31v-2.26C372.18,119.25,371.55,117.69,368.24,117.69Zm-27.49-.07c-1.93,0-3,1.38-3,4.49V146c0,2.91,1,4.41,3,4.41s3.05-1.37,3.05-4.45V122C343.82,119.11,343,117.62,340.75,117.62Zm-151,.07h-1.89v14h1.46c3.42,0,4.15-1.91,4.15-5.82v-3.22C193.48,119.64,192.76,117.69,189.76,117.69Zm-28-.07c-1.93,0-3,1.38-3,4.49V146c0,2.91,1,4.41,3,4.41s3.05-1.37,3.05-4.45V122C164.86,119.11,164.05,117.62,161.79,117.62Zm0,0c-1.93,0-3,1.38-3,4.49V146c0,2.91,1,4.41,3,4.41s3.05-1.37,3.05-4.45V122C164.86,119.11,164.05,117.62,161.79,117.62Zm28,.07h-1.89v14h1.46c3.42,0,4.15-1.91,4.15-5.82v-3.22C193.48,119.64,192.76,117.69,189.76,117.69Zm151-.07c-1.93,0-3,1.38-3,4.49V146c0,2.91,1,4.41,3,4.41s3.05-1.37,3.05-4.45V122C343.82,119.11,343,117.62,340.75,117.62Zm27.49.07h-1.41V130h1.11c3,0,4.24-.94,4.24-5.31v-2.26C372.18,119.25,371.55,117.69,368.24,117.69Zm0,0h-1.41V130h1.11c3,0,4.24-.94,4.24-5.31v-2.26C372.18,119.25,371.55,117.69,368.24,117.69Zm-27.49-.07c-1.93,0-3,1.38-3,4.49V146c0,2.91,1,4.41,3,4.41s3.05-1.37,3.05-4.45V122C343.82,119.11,343,117.62,340.75,117.62Zm-151,.07h-1.89v14h1.46c3.42,0,4.15-1.91,4.15-5.82v-3.22C193.48,119.64,192.76,117.69,189.76,117.69Zm-28-.07c-1.93,0-3,1.38-3,4.49V146c0,2.91,1,4.41,3,4.41s3.05-1.37,3.05-4.45V122C164.86,119.11,164.05,117.62,161.79,117.62Zm0,0c-1.93,0-3,1.38-3,4.49V146c0,2.91,1,4.41,3,4.41s3.05-1.37,3.05-4.45V122C164.86,119.11,164.05,117.62,161.79,117.62Zm28,.07h-1.89v14h1.46c3.42,0,4.15-1.91,4.15-5.82v-3.22C193.48,119.64,192.76,117.69,189.76,117.69Zm151-.07c-1.93,0-3,1.38-3,4.49V146c0,2.91,1,4.41,3,4.41s3.05-1.37,3.05-4.45V122C343.82,119.11,343,117.62,340.75,117.62Zm27.49.07h-1.41V130h1.11c3,0,4.24-.94,4.24-5.31v-2.26C372.18,119.25,371.55,117.69,368.24,117.69Zm0,0h-1.41V130h1.11c3,0,4.24-.94,4.24-5.31v-2.26C372.18,119.25,371.55,117.69,368.24,117.69Zm-27.49-.07c-1.93,0-3,1.38-3,4.49V146c0,2.91,1,4.41,3,4.41s3.05-1.37,3.05-4.45V122C343.82,119.11,343,117.62,340.75,117.62Zm-151,.07h-1.89v14h1.46c3.42,0,4.15-1.91,4.15-5.82v-3.22C193.48,119.64,192.76,117.69,189.76,117.69Zm-28-.07c-1.93,0-3,1.38-3,4.49V146c0,2.91,1,4.41,3,4.41s3.05-1.37,3.05-4.45V122C164.86,119.11,164.05,117.62,161.79,117.62Zm0,0c-1.93,0-3,1.38-3,4.49V146c0,2.91,1,4.41,3,4.41s3.05-1.37,3.05-4.45V122C164.86,119.11,164.05,117.62,161.79,117.62Zm28,.07h-1.89v14h1.46c3.42,0,4.15-1.91,4.15-5.82v-3.22C193.48,119.64,192.76,117.69,189.76,117.69Zm151-.07c-1.93,0-3,1.38-3,4.49V146c0,2.91,1,4.41,3,4.41s3.05-1.37,3.05-4.45V122C343.82,119.11,343,117.62,340.75,117.62Zm27.49.07h-1.41V130h1.11c3,0,4.24-.94,4.24-5.31v-2.26C372.18,119.25,371.55,117.69,368.24,117.69Zm0,0h-1.41V130h1.11c3,0,4.24-.94,4.24-5.31v-2.26C372.18,119.25,371.55,117.69,368.24,117.69Zm-27.49-.07c-1.93,0-3,1.38-3,4.49V146c0,2.91,1,4.41,3,4.41s3.05-1.37,3.05-4.45V122C343.82,119.11,343,117.62,340.75,117.62Zm-151,.07h-1.89v14h1.46c3.42,0,4.15-1.91,4.15-5.82v-3.22C193.48,119.64,192.76,117.69,189.76,117.69Zm-28-.07c-1.93,0-3,1.38-3,4.49V146c0,2.91,1,4.41,3,4.41s3.05-1.37,3.05-4.45V122C164.86,119.11,164.05,117.62,161.79,117.62Zm0,0c-1.93,0-3,1.38-3,4.49V146c0,2.91,1,4.41,3,4.41s3.05-1.37,3.05-4.45V122C164.86,119.11,164.05,117.62,161.79,117.62Zm28,.07h-1.89v14h1.46c3.42,0,4.15-1.91,4.15-5.82v-3.22C193.48,119.64,192.76,117.69,189.76,117.69Zm151-.07c-1.93,0-3,1.38-3,4.49V146c0,2.91,1,4.41,3,4.41s3.05-1.37,3.05-4.45V122C343.82,119.11,343,117.62,340.75,117.62Zm27.49.07h-1.41V130h1.11c3,0,4.24-.94,4.24-5.31v-2.26C372.18,119.25,371.55,117.69,368.24,117.69Zm0,0h-1.41V130h1.11c3,0,4.24-.94,4.24-5.31v-2.26C372.18,119.25,371.55,117.69,368.24,117.69Zm-27.49-.07c-1.93,0-3,1.38-3,4.49V146c0,2.91,1,4.41,3,4.41s3.05-1.37,3.05-4.45V122C343.82,119.11,343,117.62,340.75,117.62Zm-151,.07h-1.89v14h1.46c3.42,0,4.15-1.91,4.15-5.82v-3.22C193.48,119.64,192.76,117.69,189.76,117.69Zm-28-.07c-1.93,0-3,1.38-3,4.49V146c0,2.91,1,4.41,3,4.41s3.05-1.37,3.05-4.45V122C164.86,119.11,164.05,117.62,161.79,117.62Zm0,0c-1.93,0-3,1.38-3,4.49V146c0,2.91,1,4.41,3,4.41s3.05-1.37,3.05-4.45V122C164.86,119.11,164.05,117.62,161.79,117.62Zm28,.07h-1.89v14h1.46c3.42,0,4.15-1.91,4.15-5.82v-3.22C193.48,119.64,192.76,117.69,189.76,117.69Zm151-.07c-1.93,0-3,1.38-3,4.49V146c0,2.91,1,4.41,3,4.41s3.05-1.37,3.05-4.45V122C343.82,119.11,343,117.62,340.75,117.62Zm27.49.07h-1.41V130h1.11c3,0,4.24-.94,4.24-5.31v-2.26C372.18,119.25,371.55,117.69,368.24,117.69Zm0,0h-1.41V130h1.11c3,0,4.24-.94,4.24-5.31v-2.26C372.18,119.25,371.55,117.69,368.24,117.69Zm-27.49-.07c-1.93,0-3,1.38-3,4.49V146c0,2.91,1,4.41,3,4.41s3.05-1.37,3.05-4.45V122C343.82,119.11,343,117.62,340.75,117.62Zm-151,.07h-1.89v14h1.46c3.42,0,4.15-1.91,4.15-5.82v-3.22C193.48,119.64,192.76,117.69,189.76,117.69Zm-28-.07c-1.93,0-3,1.38-3,4.49V146c0,2.91,1,4.41,3,4.41s3.05-1.37,3.05-4.45V122C164.86,119.11,164.05,117.62,161.79,117.62Zm0,0c-1.93,0-3,1.38-3,4.49V146c0,2.91,1,4.41,3,4.41s3.05-1.37,3.05-4.45V122C164.86,119.11,164.05,117.62,161.79,117.62Zm28,.07h-1.89v14h1.46c3.42,0,4.15-1.91,4.15-5.82v-3.22C193.48,119.64,192.76,117.69,189.76,117.69Zm151-.07c-1.93,0-3,1.38-3,4.49V146c0,2.91,1,4.41,3,4.41s3.05-1.37,3.05-4.45V122C343.82,119.11,343,117.62,340.75,117.62Zm27.49.07h-1.41V130h1.11c3,0,4.24-.94,4.24-5.31v-2.26C372.18,119.25,371.55,117.69,368.24,117.69Zm0,0h-1.41V130h1.11c3,0,4.24-.94,4.24-5.31v-2.26C372.18,119.25,371.55,117.69,368.24,117.69Zm-27.49-.07c-1.93,0-3,1.38-3,4.49V146c0,2.91,1,4.41,3,4.41s3.05-1.37,3.05-4.45V122C343.82,119.11,343,117.62,340.75,117.62Zm-151,.07h-1.89v14h1.46c3.42,0,4.15-1.91,4.15-5.82v-3.22C193.48,119.64,192.76,117.69,189.76,117.69Zm-28-.07c-1.93,0-3,1.38-3,4.49V146c0,2.91,1,4.41,3,4.41s3.05-1.37,3.05-4.45V122C164.86,119.11,164.05,117.62,161.79,117.62Zm0,0c-1.93,0-3,1.38-3,4.49V146c0,2.91,1,4.41,3,4.41s3.05-1.37,3.05-4.45V122C164.86,119.11,164.05,117.62,161.79,117.62Zm28,.07h-1.89v14h1.46c3.42,0,4.15-1.91,4.15-5.82v-3.22C193.48,119.64,192.76,117.69,189.76,117.69Zm151-.07c-1.93,0-3,1.38-3,4.49V146c0,2.91,1,4.41,3,4.41s3.05-1.37,3.05-4.45V122C343.82,119.11,343,117.62,340.75,117.62Zm27.49.07h-1.41V130h1.11c3,0,4.24-.94,4.24-5.31v-2.26C372.18,119.25,371.55,117.69,368.24,117.69Zm0,0h-1.41V130h1.11c3,0,4.24-.94,4.24-5.31v-2.26C372.18,119.25,371.55,117.69,368.24,117.69Zm-27.49-.07c-1.93,0-3,1.38-3,4.49V146c0,2.91,1,4.41,3,4.41s3.05-1.37,3.05-4.45V122C343.82,119.11,343,117.62,340.75,117.62Zm-151,.07h-1.89v14h1.46c3.42,0,4.15-1.91,4.15-5.82v-3.22C193.48,119.64,192.76,117.69,189.76,117.69Zm-28-.07c-1.93,0-3,1.38-3,4.49V146c0,2.91,1,4.41,3,4.41s3.05-1.37,3.05-4.45V122C164.86,119.11,164.05,117.62,161.79,117.62Zm0,0c-1.93,0-3,1.38-3,4.49V146c0,2.91,1,4.41,3,4.41s3.05-1.37,3.05-4.45V122C164.86,119.11,164.05,117.62,161.79,117.62Zm28,.07h-1.89v14h1.46c3.42,0,4.15-1.91,4.15-5.82v-3.22C193.48,119.64,192.76,117.69,189.76,117.69Zm151-.07c-1.93,0-3,1.38-3,4.49V146c0,2.91,1,4.41,3,4.41s3.05-1.37,3.05-4.45V122C343.82,119.11,343,117.62,340.75,117.62Zm27.49.07h-1.41V130h1.11c3,0,4.24-.94,4.24-5.31v-2.26C372.18,119.25,371.55,117.69,368.24,117.69Zm0,0h-1.41V130h1.11c3,0,4.24-.94,4.24-5.31v-2.26C372.18,119.25,371.55,117.69,368.24,117.69Zm-27.49-.07c-1.93,0-3,1.38-3,4.49V146c0,2.91,1,4.41,3,4.41s3.05-1.37,3.05-4.45V122C343.82,119.11,343,117.62,340.75,117.62Zm-151,.07h-1.89v14h1.46c3.42,0,4.15-1.91,4.15-5.82v-3.22C193.48,119.64,192.76,117.69,189.76,117.69Zm-28-.07c-1.93,0-3,1.38-3,4.49V146c0,2.91,1,4.41,3,4.41s3.05-1.37,3.05-4.45V122C164.86,119.11,164.05,117.62,161.79,117.62Zm0,0c-1.93,0-3,1.38-3,4.49V146c0,2.91,1,4.41,3,4.41s3.05-1.37,3.05-4.45V122C164.86,119.11,164.05,117.62,161.79,117.62Zm28,.07h-1.89v14h1.46c3.42,0,4.15-1.91,4.15-5.82v-3.22C193.48,119.64,192.76,117.69,189.76,117.69Zm151-.07c-1.93,0-3,1.38-3,4.49V146c0,2.91,1,4.41,3,4.41s3.05-1.37,3.05-4.45V122C343.82,119.11,343,117.62,340.75,117.62Zm27.49.07h-1.41V130h1.11c3,0,4.24-.94,4.24-5.31v-2.26C372.18,119.25,371.55,117.69,368.24,117.69Zm0,0h-1.41V130h1.11c3,0,4.24-.94,4.24-5.31v-2.26C372.18,119.25,371.55,117.69,368.24,117.69Zm-27.49-.07c-1.93,0-3,1.38-3,4.49V146c0,2.91,1,4.41,3,4.41s3.05-1.37,3.05-4.45V122C343.82,119.11,343,117.62,340.75,117.62Zm-151,.07h-1.89v14h1.46c3.42,0,4.15-1.91,4.15-5.82v-3.22C193.48,119.64,192.76,117.69,189.76,117.69Zm-28-.07c-1.93,0-3,1.38-3,4.49V146c0,2.91,1,4.41,3,4.41s3.05-1.37,3.05-4.45V122C164.86,119.11,164.05,117.62,161.79,117.62Zm0,0c-1.93,0-3,1.38-3,4.49V146c0,2.91,1,4.41,3,4.41s3.05-1.37,3.05-4.45V122C164.86,119.11,164.05,117.62,161.79,117.62Zm28,.07h-1.89v14h1.46c3.42,0,4.15-1.91,4.15-5.82v-3.22C193.48,119.64,192.76,117.69,189.76,117.69Zm151-.07c-1.93,0-3,1.38-3,4.49V146c0,2.91,1,4.41,3,4.41s3.05-1.37,3.05-4.45V122C343.82,119.11,343,117.62,340.75,117.62Zm27.49.07h-1.41V130h1.11c3,0,4.24-.94,4.24-5.31v-2.26C372.18,119.25,371.55,117.69,368.24,117.69Zm0,0h-1.41V130h1.11c3,0,4.24-.94,4.24-5.31v-2.26C372.18,119.25,371.55,117.69,368.24,117.69Zm-27.49-.07c-1.93,0-3,1.38-3,4.49V146c0,2.91,1,4.41,3,4.41s3.05-1.37,3.05-4.45V122C343.82,119.11,343,117.62,340.75,117.62Zm-151,.07h-1.89v14h1.46c3.42,0,4.15-1.91,4.15-5.82v-3.22C193.48,119.64,192.76,117.69,189.76,117.69Zm-28-.07c-1.93,0-3,1.38-3,4.49V146c0,2.91,1,4.41,3,4.41s3.05-1.37,3.05-4.45V122C164.86,119.11,164.05,117.62,161.79,117.62ZM411.91,88.09H88.09A11.41,11.41,0,0,0,76.52,99.64v66.51a11.42,11.42,0,0,0,11.57,11.56H411.91a11.42,11.42,0,0,0,11.57-11.56V99.64A11.41,11.41,0,0,0,411.91,88.09Zm-306.82,70c-8.93,0-11.47-5.39-11.47-12.33V143h8.81v3.24c0,3.09.77,4.52,2.82,4.52s2.57-2.12,2.57-4.33c0-4.42-.84-5.7-5.62-9.7-5.27-4.47-8-7.11-8-14,0-6.69,2.22-12.85,11.08-12.85,9.43,0,10.81,6.42,10.81,11.77v2.7H107.6v-2.8c0-2.84-.46-4.25-2.25-4.25s-2.19,1.43-2.19,4.08c0,2.82.51,4.22,4.38,7.24,6.89,5.4,9.36,8.44,9.36,16.16C116.9,152.08,114.4,158.12,105.09,158.12Zm39.76-.71h-9.07V136.56H129.9v20.85h-9V110.59h9v18h5.88v-18h9.07ZM174,144.85c0,9.28-4.38,13.27-12.57,13.27-7.76,0-11.76-4.08-11.76-13.19V122.88c0-9,5-13,12.18-13S174,113.77,174,123.12Zm28.47-19c0,8.2-3.09,13.15-12,13.15h-2.64v18.4h-9V110.59h12c7.78,0,11.63,4.11,11.63,12.41Zm13,31.55h-9V110.59h9Zm25.07-38.86H230.12v10.68h9.82v8h-9.82v20.22h-9V110.59h19.43Zm20,22.21a8.69,8.69,0,0,0-.21,2v14.65h-9v-15A10.15,10.15,0,0,0,251,140l-8.22-29.41h9.8c1.26,6.75,2.73,14.52,3.31,20.42h.3c.75-5.61,2.26-13.54,3.48-20.42h9.28Zm29.74,17.36c-8.93,0-11.48-5.39-11.48-12.33V143h8.82v3.24c0,3.09.77,4.52,2.82,4.52s2.57-2.12,2.57-4.33c0-4.42-.83-5.7-5.62-9.7-5.28-4.47-8-7.11-8-14,0-6.69,2.21-12.85,11.08-12.85,9.42,0,10.8,6.42,10.8,11.77v2.7h-8.49v-2.8c0-2.84-.48-4.25-2.25-4.25s-2.2,1.43-2.2,4.08c0,2.82.51,4.22,4.38,7.24C299.57,134,302,137,302,144.75,302,152.08,299.54,158.12,290.23,158.12Zm36.11-39.57h-6.86v38.86h-9V118.55h-6.82v-8h22.68ZM353,144.85c0,9.28-4.38,13.27-12.56,13.27-7.77,0-11.77-4.08-11.77-13.19V122.88c0-9,5-13,12.18-13S353,113.77,353,123.12Zm28.25-20.94c0,6.68-2.66,8.66-4.67,9.61,2.91,1.41,4.28,3.54,4.28,10.07,0,4.53-.08,11.36.31,13.82h-8.71c-.57-2.11-.53-8.21-.53-14.18,0-5.27-.61-6.17-4-6.17h-1.06v20.35h-9V110.59H369.5c7.85,0,11.73,3.45,11.73,11.63Zm24.08,33.5H386.05V110.59h19.19v8H395.07v10.27h9.65v7.92h-9.65v12.75h11.31Zm-37.07-39.72h-1.41V130h1.11c3,0,4.24-.94,4.24-5.31v-2.26C372.18,119.25,371.55,117.69,368.24,117.69Zm-27.49-.07c-1.93,0-3,1.38-3,4.49V146c0,2.91,1,4.41,3,4.41s3.05-1.37,3.05-4.45V122C343.82,119.11,343,117.62,340.75,117.62Zm-151,.07h-1.89v14h1.46c3.42,0,4.15-1.91,4.15-5.82v-3.22C193.48,119.64,192.76,117.69,189.76,117.69Zm-28-.07c-1.93,0-3,1.38-3,4.49V146c0,2.91,1,4.41,3,4.41s3.05-1.37,3.05-4.45V122C164.86,119.11,164.05,117.62,161.79,117.62Zm0,0c-1.93,0-3,1.38-3,4.49V146c0,2.91,1,4.41,3,4.41s3.05-1.37,3.05-4.45V122C164.86,119.11,164.05,117.62,161.79,117.62Zm28,.07h-1.89v14h1.46c3.42,0,4.15-1.91,4.15-5.82v-3.22C193.48,119.64,192.76,117.69,189.76,117.69Zm151-.07c-1.93,0-3,1.38-3,4.49V146c0,2.91,1,4.41,3,4.41s3.05-1.37,3.05-4.45V122C343.82,119.11,343,117.62,340.75,117.62Zm27.49.07h-1.41V130h1.11c3,0,4.24-.94,4.24-5.31v-2.26C372.18,119.25,371.55,117.69,368.24,117.69Zm0,0h-1.41V130h1.11c3,0,4.24-.94,4.24-5.31v-2.26C372.18,119.25,371.55,117.69,368.24,117.69Zm-27.49-.07c-1.93,0-3,1.38-3,4.49V146c0,2.91,1,4.41,3,4.41s3.05-1.37,3.05-4.45V122C343.82,119.11,343,117.62,340.75,117.62Zm-151,.07h-1.89v14h1.46c3.42,0,4.15-1.91,4.15-5.82v-3.22C193.48,119.64,192.76,117.69,189.76,117.69Zm-28-.07c-1.93,0-3,1.38-3,4.49V146c0,2.91,1,4.41,3,4.41s3.05-1.37,3.05-4.45V122C164.86,119.11,164.05,117.62,161.79,117.62Zm0,0c-1.93,0-3,1.38-3,4.49V146c0,2.91,1,4.41,3,4.41s3.05-1.37,3.05-4.45V122C164.86,119.11,164.05,117.62,161.79,117.62Zm28,.07h-1.89v14h1.46c3.42,0,4.15-1.91,4.15-5.82v-3.22C193.48,119.64,192.76,117.69,189.76,117.69Zm151-.07c-1.93,0-3,1.38-3,4.49V146c0,2.91,1,4.41,3,4.41s3.05-1.37,3.05-4.45V122C343.82,119.11,343,117.62,340.75,117.62Zm27.49.07h-1.41V130h1.11c3,0,4.24-.94,4.24-5.31v-2.26C372.18,119.25,371.55,117.69,368.24,117.69Zm0,0h-1.41V130h1.11c3,0,4.24-.94,4.24-5.31v-2.26C372.18,119.25,371.55,117.69,368.24,117.69Zm-27.49-.07c-1.93,0-3,1.38-3,4.49V146c0,2.91,1,4.41,3,4.41s3.05-1.37,3.05-4.45V122C343.82,119.11,343,117.62,340.75,117.62Zm-151,.07h-1.89v14h1.46c3.42,0,4.15-1.91,4.15-5.82v-3.22C193.48,119.64,192.76,117.69,189.76,117.69Zm-28-.07c-1.93,0-3,1.38-3,4.49V146c0,2.91,1,4.41,3,4.41s3.05-1.37,3.05-4.45V122C164.86,119.11,164.05,117.62,161.79,117.62Zm0,0c-1.93,0-3,1.38-3,4.49V146c0,2.91,1,4.41,3,4.41s3.05-1.37,3.05-4.45V122C164.86,119.11,164.05,117.62,161.79,117.62Zm28,.07h-1.89v14h1.46c3.42,0,4.15-1.91,4.15-5.82v-3.22C193.48,119.64,192.76,117.69,189.76,117.69Zm151-.07c-1.93,0-3,1.38-3,4.49V146c0,2.91,1,4.41,3,4.41s3.05-1.37,3.05-4.45V122C343.82,119.11,343,117.62,340.75,117.62Zm27.49.07h-1.41V130h1.11c3,0,4.24-.94,4.24-5.31v-2.26C372.18,119.25,371.55,117.69,368.24,117.69Zm0,0h-1.41V130h1.11c3,0,4.24-.94,4.24-5.31v-2.26C372.18,119.25,371.55,117.69,368.24,117.69Zm-27.49-.07c-1.93,0-3,1.38-3,4.49V146c0,2.91,1,4.41,3,4.41s3.05-1.37,3.05-4.45V122C343.82,119.11,343,117.62,340.75,117.62Zm-151,.07h-1.89v14h1.46c3.42,0,4.15-1.91,4.15-5.82v-3.22C193.48,119.64,192.76,117.69,189.76,117.69Zm-28-.07c-1.93,0-3,1.38-3,4.49V146c0,2.91,1,4.41,3,4.41s3.05-1.37,3.05-4.45V122C164.86,119.11,164.05,117.62,161.79,117.62Zm0,0c-1.93,0-3,1.38-3,4.49V146c0,2.91,1,4.41,3,4.41s3.05-1.37,3.05-4.45V122C164.86,119.11,164.05,117.62,161.79,117.62Zm28,.07h-1.89v14h1.46c3.42,0,4.15-1.91,4.15-5.82v-3.22C193.48,119.64,192.76,117.69,189.76,117.69Zm151-.07c-1.93,0-3,1.38-3,4.49V146c0,2.91,1,4.41,3,4.41s3.05-1.37,3.05-4.45V122C343.82,119.11,343,117.62,340.75,117.62Zm27.49.07h-1.41V130h1.11c3,0,4.24-.94,4.24-5.31v-2.26C372.18,119.25,371.55,117.69,368.24,117.69Zm0,0h-1.41V130h1.11c3,0,4.24-.94,4.24-5.31v-2.26C372.18,119.25,371.55,117.69,368.24,117.69Zm-27.49-.07c-1.93,0-3,1.38-3,4.49V146c0,2.91,1,4.41,3,4.41s3.05-1.37,3.05-4.45V122C343.82,119.11,343,117.62,340.75,117.62Zm-151,.07h-1.89v14h1.46c3.42,0,4.15-1.91,4.15-5.82v-3.22C193.48,119.64,192.76,117.69,189.76,117.69Zm-28-.07c-1.93,0-3,1.38-3,4.49V146c0,2.91,1,4.41,3,4.41s3.05-1.37,3.05-4.45V122C164.86,119.11,164.05,117.62,161.79,117.62Zm0,0c-1.93,0-3,1.38-3,4.49V146c0,2.91,1,4.41,3,4.41s3.05-1.37,3.05-4.45V122C164.86,119.11,164.05,117.62,161.79,117.62Zm28,.07h-1.89v14h1.46c3.42,0,4.15-1.91,4.15-5.82v-3.22C193.48,119.64,192.76,117.69,189.76,117.69Zm151-.07c-1.93,0-3,1.38-3,4.49V146c0,2.91,1,4.41,3,4.41s3.05-1.37,3.05-4.45V122C343.82,119.11,343,117.62,340.75,117.62Zm27.49.07h-1.41V130h1.11c3,0,4.24-.94,4.24-5.31v-2.26C372.18,119.25,371.55,117.69,368.24,117.69Zm0,0h-1.41V130h1.11c3,0,4.24-.94,4.24-5.31v-2.26C372.18,119.25,371.55,117.69,368.24,117.69Zm-27.49-.07c-1.93,0-3,1.38-3,4.49V146c0,2.91,1,4.41,3,4.41s3.05-1.37,3.05-4.45V122C343.82,119.11,343,117.62,340.75,117.62Zm-151,.07h-1.89v14h1.46c3.42,0,4.15-1.91,4.15-5.82v-3.22C193.48,119.64,192.76,117.69,189.76,117.69Zm-28-.07c-1.93,0-3,1.38-3,4.49V146c0,2.91,1,4.41,3,4.41s3.05-1.37,3.05-4.45V122C164.86,119.11,164.05,117.62,161.79,117.62Zm0,0c-1.93,0-3,1.38-3,4.49V146c0,2.91,1,4.41,3,4.41s3.05-1.37,3.05-4.45V122C164.86,119.11,164.05,117.62,161.79,117.62Zm28,.07h-1.89v14h1.46c3.42,0,4.15-1.91,4.15-5.82v-3.22C193.48,119.64,192.76,117.69,189.76,117.69Zm151-.07c-1.93,0-3,1.38-3,4.49V146c0,2.91,1,4.41,3,4.41s3.05-1.37,3.05-4.45V122C343.82,119.11,343,117.62,340.75,117.62Zm27.49.07h-1.41V130h1.11c3,0,4.24-.94,4.24-5.31v-2.26C372.18,119.25,371.55,117.69,368.24,117.69Zm0,0h-1.41V130h1.11c3,0,4.24-.94,4.24-5.31v-2.26C372.18,119.25,371.55,117.69,368.24,117.69Zm-27.49-.07c-1.93,0-3,1.38-3,4.49V146c0,2.91,1,4.41,3,4.41s3.05-1.37,3.05-4.45V122C343.82,119.11,343,117.62,340.75,117.62Zm-151,.07h-1.89v14h1.46c3.42,0,4.15-1.91,4.15-5.82v-3.22C193.48,119.64,192.76,117.69,189.76,117.69Zm-28-.07c-1.93,0-3,1.38-3,4.49V146c0,2.91,1,4.41,3,4.41s3.05-1.37,3.05-4.45V122C164.86,119.11,164.05,117.62,161.79,117.62Zm0,0c-1.93,0-3,1.38-3,4.49V146c0,2.91,1,4.41,3,4.41s3.05-1.37,3.05-4.45V122C164.86,119.11,164.05,117.62,161.79,117.62Zm28,.07h-1.89v14h1.46c3.42,0,4.15-1.91,4.15-5.82v-3.22C193.48,119.64,192.76,117.69,189.76,117.69Zm151-.07c-1.93,0-3,1.38-3,4.49V146c0,2.91,1,4.41,3,4.41s3.05-1.37,3.05-4.45V122C343.82,119.11,343,117.62,340.75,117.62Zm27.49.07h-1.41V130h1.11c3,0,4.24-.94,4.24-5.31v-2.26C372.18,119.25,371.55,117.69,368.24,117.69Zm0,0h-1.41V130h1.11c3,0,4.24-.94,4.24-5.31v-2.26C372.18,119.25,371.55,117.69,368.24,117.69Zm-27.49-.07c-1.93,0-3,1.38-3,4.49V146c0,2.91,1,4.41,3,4.41s3.05-1.37,3.05-4.45V122C343.82,119.11,343,117.62,340.75,117.62Zm-151,.07h-1.89v14h1.46c3.42,0,4.15-1.91,4.15-5.82v-3.22C193.48,119.64,192.76,117.69,189.76,117.69Zm-28-.07c-1.93,0-3,1.38-3,4.49V146c0,2.91,1,4.41,3,4.41s3.05-1.37,3.05-4.45V122C164.86,119.11,164.05,117.62,161.79,117.62Zm0,0c-1.93,0-3,1.38-3,4.49V146c0,2.91,1,4.41,3,4.41s3.05-1.37,3.05-4.45V122C164.86,119.11,164.05,117.62,161.79,117.62Zm28,.07h-1.89v14h1.46c3.42,0,4.15-1.91,4.15-5.82v-3.22C193.48,119.64,192.76,117.69,189.76,117.69Zm151-.07c-1.93,0-3,1.38-3,4.49V146c0,2.91,1,4.41,3,4.41s3.05-1.37,3.05-4.45V122C343.82,119.11,343,117.62,340.75,117.62Zm27.49.07h-1.41V130h1.11c3,0,4.24-.94,4.24-5.31v-2.26C372.18,119.25,371.55,117.69,368.24,117.69Zm0,0h-1.41V130h1.11c3,0,4.24-.94,4.24-5.31v-2.26C372.18,119.25,371.55,117.69,368.24,117.69Zm-27.49-.07c-1.93,0-3,1.38-3,4.49V146c0,2.91,1,4.41,3,4.41s3.05-1.37,3.05-4.45V122C343.82,119.11,343,117.62,340.75,117.62Zm-151,.07h-1.89v14h1.46c3.42,0,4.15-1.91,4.15-5.82v-3.22C193.48,119.64,192.76,117.69,189.76,117.69Zm-28-.07c-1.93,0-3,1.38-3,4.49V146c0,2.91,1,4.41,3,4.41s3.05-1.37,3.05-4.45V122C164.86,119.11,164.05,117.62,161.79,117.62Zm0,0c-1.93,0-3,1.38-3,4.49V146c0,2.91,1,4.41,3,4.41s3.05-1.37,3.05-4.45V122C164.86,119.11,164.05,117.62,161.79,117.62Zm28,.07h-1.89v14h1.46c3.42,0,4.15-1.91,4.15-5.82v-3.22C193.48,119.64,192.76,117.69,189.76,117.69Zm151-.07c-1.93,0-3,1.38-3,4.49V146c0,2.91,1,4.41,3,4.41s3.05-1.37,3.05-4.45V122C343.82,119.11,343,117.62,340.75,117.62Zm27.49.07h-1.41V130h1.11c3,0,4.24-.94,4.24-5.31v-2.26C372.18,119.25,371.55,117.69,368.24,117.69Zm0,0h-1.41V130h1.11c3,0,4.24-.94,4.24-5.31v-2.26C372.18,119.25,371.55,117.69,368.24,117.69Zm-27.49-.07c-1.93,0-3,1.38-3,4.49V146c0,2.91,1,4.41,3,4.41s3.05-1.37,3.05-4.45V122C343.82,119.11,343,117.62,340.75,117.62Zm-151,.07h-1.89v14h1.46c3.42,0,4.15-1.91,4.15-5.82v-3.22C193.48,119.64,192.76,117.69,189.76,117.69Zm-28-.07c-1.93,0-3,1.38-3,4.49V146c0,2.91,1,4.41,3,4.41s3.05-1.37,3.05-4.45V122C164.86,119.11,164.05,117.62,161.79,117.62Zm0,0c-1.93,0-3,1.38-3,4.49V146c0,2.91,1,4.41,3,4.41s3.05-1.37,3.05-4.45V122C164.86,119.11,164.05,117.62,161.79,117.62Zm28,.07h-1.89v14h1.46c3.42,0,4.15-1.91,4.15-5.82v-3.22C193.48,119.64,192.76,117.69,189.76,117.69Zm151-.07c-1.93,0-3,1.38-3,4.49V146c0,2.91,1,4.41,3,4.41s3.05-1.37,3.05-4.45V122C343.82,119.11,343,117.62,340.75,117.62Zm27.49.07h-1.41V130h1.11c3,0,4.24-.94,4.24-5.31v-2.26C372.18,119.25,371.55,117.69,368.24,117.69Zm0,0h-1.41V130h1.11c3,0,4.24-.94,4.24-5.31v-2.26C372.18,119.25,371.55,117.69,368.24,117.69Zm-27.49-.07c-1.93,0-3,1.38-3,4.49V146c0,2.91,1,4.41,3,4.41s3.05-1.37,3.05-4.45V122C343.82,119.11,343,117.62,340.75,117.62Zm-151,.07h-1.89v14h1.46c3.42,0,4.15-1.91,4.15-5.82v-3.22C193.48,119.64,192.76,117.69,189.76,117.69Zm-28-.07c-1.93,0-3,1.38-3,4.49V146c0,2.91,1,4.41,3,4.41s3.05-1.37,3.05-4.45V122C164.86,119.11,164.05,117.62,161.79,117.62Zm0,0c-1.93,0-3,1.38-3,4.49V146c0,2.91,1,4.41,3,4.41s3.05-1.37,3.05-4.45V122C164.86,119.11,164.05,117.62,161.79,117.62Zm28,.07h-1.89v14h1.46c3.42,0,4.15-1.91,4.15-5.82v-3.22C193.48,119.64,192.76,117.69,189.76,117.69Zm151-.07c-1.93,0-3,1.38-3,4.49V146c0,2.91,1,4.41,3,4.41s3.05-1.37,3.05-4.45V122C343.82,119.11,343,117.62,340.75,117.62Zm0,0c-1.93,0-3,1.38-3,4.49V146c0,2.91,1,4.41,3,4.41s3.05-1.37,3.05-4.45V122C343.82,119.11,343,117.62,340.75,117.62Zm-151,.07h-1.89v14h1.46c3.42,0,4.15-1.91,4.15-5.82v-3.22C193.48,119.64,192.76,117.69,189.76,117.69Zm-28-.07c-1.93,0-3,1.38-3,4.49V146c0,2.91,1,4.41,3,4.41s3.05-1.37,3.05-4.45V122C164.86,119.11,164.05,117.62,161.79,117.62Zm0,0c-1.93,0-3,1.38-3,4.49V146c0,2.91,1,4.41,3,4.41s3.05-1.37,3.05-4.45V122C164.86,119.11,164.05,117.62,161.79,117.62Zm28,.07h-1.89v14h1.46c3.42,0,4.15-1.91,4.15-5.82v-3.22C193.48,119.64,192.76,117.69,189.76,117.69Zm0,0h-1.89v14h1.46c3.42,0,4.15-1.91,4.15-5.82v-3.22C193.48,119.64,192.76,117.69,189.76,117.69Zm-28-.07c-1.93,0-3,1.38-3,4.49V146c0,2.91,1,4.41,3,4.41s3.05-1.37,3.05-4.45V122C164.86,119.11,164.05,117.62,161.79,117.62Zm0,0c-1.93,0-3,1.38-3,4.49V146c0,2.91,1,4.41,3,4.41s3.05-1.37,3.05-4.45V122C164.86,119.11,164.05,117.62,161.79,117.62Zm28,.07h-1.89v14h1.46c3.42,0,4.15-1.91,4.15-5.82v-3.22C193.48,119.64,192.76,117.69,189.76,117.69Zm0,0h-1.89v14h1.46c3.42,0,4.15-1.91,4.15-5.82v-3.22C193.48,119.64,192.76,117.69,189.76,117.69Zm-28-.07c-1.93,0-3,1.38-3,4.49V146c0,2.91,1,4.41,3,4.41s3.05-1.37,3.05-4.45V122C164.86,119.11,164.05,117.62,161.79,117.62Zm0,0c-1.93,0-3,1.38-3,4.49V146c0,2.91,1,4.41,3,4.41s3.05-1.37,3.05-4.45V122C164.86,119.11,164.05,117.62,161.79,117.62Zm28,.07h-1.89v14h1.46c3.42,0,4.15-1.91,4.15-5.82v-3.22C193.48,119.64,192.76,117.69,189.76,117.69Zm0,0h-1.89v14h1.46c3.42,0,4.15-1.91,4.15-5.82v-3.22C193.48,119.64,192.76,117.69,189.76,117.69Zm-28-.07c-1.93,0-3,1.38-3,4.49V146c0,2.91,1,4.41,3,4.41s3.05-1.37,3.05-4.45V122C164.86,119.11,164.05,117.62,161.79,117.62Z"/><path class="cls-1" d="M411.91,203.73H326.62a11.43,11.43,0,0,0-11.57,11.57V400.35a11.41,11.41,0,0,0,11.57,11.56h85.29a11.41,11.41,0,0,0,11.57-11.56v-185A11.43,11.43,0,0,0,411.91,203.73Zm-28,186.48a15.05,15.05,0,1,1,0-6.92,12.46,12.46,0,0,1,0,6.92Zm2.57-101c1.49-2.13,3.56-3.73,5.18-5.75-10.39-1.75-20.91-2.76-31.35-4.17,4.88,9.31,9.81,18.63,15,27.79,1.4-2.18,2.24-4.67,3.52-6.92,3.85,2.54,7.61,5.19,11.4,7.81-2.61,4-5.27,8.05-8.07,11.95-3.87,4.89-12.49,4.12-15.37-1.44-6.37-11.9-12.64-23.85-19-35.78-1.28-2.47-3-5-2.86-7.88a9.6,9.6,0,0,1,10.19-9.43c14.63,2,29.27,3.89,43.9,5.88a9.47,9.47,0,0,1,7.62,9.76c.09,2.85-1.76,5.19-3.26,7.43-2,2.79-3.71,5.75-5.81,8.45C393.92,294.33,390.13,291.87,386.49,289.23Zm10.32,36.26c.16,4.81-6.42,7.62-9.93,4.37-4.15-3-2.06-10.45,3.09-10.85C393.58,318.42,397.33,321.77,396.81,325.49Zm-36,5.61A6.15,6.15,0,1,1,358.46,319a6.15,6.15,0,0,1,2.36,12.06Zm-17.38-47.78a31.65,31.65,0,0,1,1.59,2.92c-4.43.88-8.83,1.92-13.31,2.42a8.1,8.1,0,0,1-.28-2.88C335.35,284.64,339.47,284.33,343.44,283.32Zm-9-22.88c2.9,2.11,6,4,8.81,6.2a7.86,7.86,0,0,1-1.11,2.58c-3.36-1.63-6.19-4.16-9.38-6.11C331,262.43,333.05,259,334.44,260.44Zm16,36.06c.5,1.13,2.07,2.41,1.13,3.67l-6.38,9.28a6.69,6.69,0,0,1-2.57-1.54C345,304,347.63,300.18,350.42,296.5Zm4.82-45.67c.9-.2,1.81-.42,2.71-.65,1.13,3.81,1.57,7.8,2.34,11.69l-3.2-.25A107.62,107.62,0,0,1,355.24,250.83Zm17.6,12.81c2.14-3.41,4.55-6.63,6.77-10a6.44,6.44,0,0,1,2.64,1.52q-2.94,4.43-6,8.75Q374.52,263.84,372.84,263.64Zm-20.95-52.19a1.49,1.49,0,0,1,1.5-1.48h32a1.49,1.49,0,0,1,1.49,1.48v.83a1.49,1.49,0,0,1-1.49,1.49h-32a1.5,1.5,0,0,1-1.5-1.49Z"/><path class="cls-1" d="M161.53,258.05c-4.21,1.49-8.51,2.69-12.77,4.05,2.73-8.94,6.35-18,12.77-24.93,4-4.42,10-7.76,16.17-6.66,0,.23.11.66.14.88C168.2,236.79,163.49,247.65,161.53,258.05Z"/><path class="cls-1" d="M185.5,282.45c-1.8,6.17-4.16,12.16-6,18.33-5.7-1.93-12-3.95-18-1.66-3.87,1.4-6,6.75-3.15,10.08,4.17,4.79,10.2,7.54,14.4,12.33,11.32,11.63,6.47,34.72-9.32,39.74-11,3.32-23.48-.45-31.52-8.46,1.17-4.79,2.77-9.46,4.19-14.17,5.06,3.62,10.93,8,17.5,6.78,4.87-1.35,5.48-7.95,2.52-11.44-4.42-5.56-11.73-8.68-14.47-15.62-3.93-10.22-.41-22.55,7.54-29.89C158.9,279.85,173.58,278.12,185.5,282.45Z"/><path class="cls-1" d="M182,236.08a46,46,0,0,1,2.1,15c-5.37,1.75-10.79,3.38-16.18,5C170.05,248.14,174.15,239.74,182,236.08Z"/><path class="cls-1" d="M197.42,247c-2.59.87-5.18,1.66-7.81,2.38A48.56,48.56,0,0,0,187.76,235C193.28,236.39,195.73,242.11,197.42,247Z"/><path class="cls-1" d="M274.57,203.73H88.09A11.43,11.43,0,0,0,76.52,215.3V400.35a11.41,11.41,0,0,0,11.57,11.56H274.57a11.41,11.41,0,0,0,11.57-11.56v-185A11.43,11.43,0,0,0,274.57,203.73Zm-72.32,183c-30.7-5.61-61.36-11.51-92.06-17.17,3.73-31.62,8.14-63.17,12.13-94.75.4-1.8.25-4.38,2.35-5.1,5.76-2.22,11.81-3.61,17.62-5.71,3.33-12.74,8.62-26,19.34-34.34,6.51-5.05,17.29-7.83,23.27-.49,9.22,0,15,8.26,17.68,16.19,2.5-.53,5.07-2.13,7.65-1.39,3.79,2.93,6.65,6.95,10.47,9.85,4.65.8,9.46.34,14.08,1.46,6,40.27,12.27,80.52,17.69,120.86C235.7,379.52,219.06,383.72,202.25,386.75Z"/><path class="cls-2" d="M315.05,364.24V401.4a10.52,10.52,0,0,0,10.52,10.51H413a10.52,10.52,0,0,0,10.51-10.51V364.24Zm54.22,37.56a15.06,15.06,0,1,1,15.05-15.05,15.23,15.23,0,0,1-.4,3.46A15.07,15.07,0,0,1,369.27,401.8Z"/><path class="cls-2" d="M413,203.73h-87.4a10.52,10.52,0,0,0-10.52,10.52v4.93H423.48v-4.93A10.52,10.52,0,0,0,413,203.73Zm-26.06,8.55a1.49,1.49,0,0,1-1.49,1.49h-32a1.5,1.5,0,0,1-1.5-1.49v-.83a1.49,1.49,0,0,1,1.5-1.48h32a1.49,1.49,0,0,1,1.49,1.48Z"/></svg>