<svg id="Layer_1" data-name="Layer 1" xmlns="http://www.w3.org/2000/svg" viewBox="0 0 500 500"><defs><style>.cls-1{fill:#154dff;}</style></defs><path class="cls-1" d="M208.23,205c10.17-.06,20.34,0,30.52,0q8.66,13,17.32,25.93H225.49Zm37.44,0h16a26,26,0,0,1,25.66,25.93c-8.12,0-16.25,0-24.37,0C257.18,222.3,251.45,213.63,245.67,205ZM189.07,215a26,26,0,0,1,13-8.94q8.28,12.41,16.54,24.81h-35A25.82,25.82,0,0,1,189.07,215Zm-5.45,21.64H287.36v46.11a26,26,0,0,1-21.74,25.58,45.23,45.23,0,0,1-7.72.35H209.56a26,26,0,0,1-25.94-25.66q0-23.19,0-46.38M223.44,254a2.88,2.88,0,0,0-2.35,2.83q0,14.32,0,28.64a2.93,2.93,0,0,0,2.24,3,3.2,3.2,0,0,0,2.47-.52q12.69-7.05,25.36-14.09a2.9,2.9,0,0,0,.06-5.17q-12.33-6.85-24.65-13.69C225.6,254.47,224.59,253.74,223.44,254ZM51.85,46C61.11,12.92,101.57-5.32,133.2,6c18.73,6.34,31.94,22.82,38.94,40.75,11.58,1.54,21.25,12.54,18.69,24.49.15,6-7.22,10.1-4.64,16.09,3.35,11.72,7.81,23.11,11,34.87-10.68,3.4-22.1.35-33.09,1.46-4-.6-10.84,1.82-12.41-3.31,10.19-8.8,14.66-22.74,13.95-35.93-1.08-22.38-12.62-45.28-33-55.88C116.34,19.46,94,21.5,80.86,35.27c-22.72,24.51-13.61,67.17,12.88,85.29-5.47,6.47-16.52,1.3-24.24,3.74C51.25,103.34,44.37,72.79,51.85,46ZM336.27,9.74c27.21-15.12,64.32-4.93,82,20.07,13.22,19.69,13,45.62,5.59,67.43-5.27,14.59-14,29.14-27.66,37.12-39.83-.08-79.68-.37-119.52.14,4.15-15.93,10.28-31.28,14.91-47.09,2.59-6.47-5.62-11-4.82-17.62C285,58.3,294.67,48.24,305.66,46.87c6-15.15,15.93-29.39,30.61-37.13m20.49,14.44c-33.07,8.12-51.89,47.95-41.93,79.41,5.48,16.18,21.81,27.73,38.65,28.77,24.28-2,46.54-20,53.27-43.53,5.51-17,3.91-37.17-7.76-51.27C389,25.4,371.88,20.46,356.76,24.18ZM98.15,153.35C104.64,150.2,112,151.26,119,151c29.28.29,58.58.1,87.88.1q31.94-.1,63.86,0c29.31,0,58.63.19,87.93-.09,13-1.69,29.13,2.07,33.34,16.2,2.93,13.25.64,27.09,1.35,40.6,12.23-.73,24.33-2.84,36.52-4,1.18-5.65,3.87-11.76,9.88-13.61,5.35-2.76,12,2.16,11.27,8q.1,57,0,114.07c.68,5-3.47,10.4-8.84,9.23-7.12-.53-11.08-7.31-12.16-13.67-12.14-2.1-24.45-3.06-36.65-4.63-.14,11.42.16,22.84-.11,34.26-.37,11-9.24,21.21-20.35,22.39q-134.12.14-268.22,0C93,358.71,84,347.59,84.29,336q-.09-79.89,0-159.78c-.42-9.49,5.11-19,13.87-22.87m9.76,21.37q0,80.94,0,161.86,130.94.56,261.9,0-.12-80.94,0-161.86Q238.81,174.75,107.91,174.72Zm36,212.85c13.65-.95,27.36-.51,41-.22-19.38,37.12-41.39,72.92-61.4,109.73-7.29-7.66-5.69-19.8-5.16-29.57C122.32,439.63,133.74,413.6,143.9,387.57Zm146.65,1c13.14-3.14,27-1,40.43-1.19,9.6,24,19.58,48,24.67,73.44,2,12.06,3.57,25.83-3.62,36.54C331.35,461.21,310.42,425.15,290.55,388.56Zm-196.81-268c9.47,6.28,20.43,11.19,32,11.22,9.66-.66,18.53-5.47,26-11.4,1.57,5.13,8.38,2.71,12.41,3.31,11-1.11,22.41,1.94,33.09-1.46l.67-.22c2.79,9.77,6.83,19.16,9,29.12-29.3,0-58.6.19-87.88-.1C101.34,145,81.42,139.93,69.5,124.3,77.22,121.86,88.27,127,93.74,120.56Zm177,30.57c1.95-5.49,2.51-11.95,5.94-16.63,39.84-.51,79.69-.22,119.52-.14-10,9.86-25,11.41-37.53,16.68C329.38,151.32,300.06,151.13,270.75,151.13ZM104.72,360q134.12.12,268.22,0c-17.72,1.69-35.7-.25-53.5.92,3.77,8.87,8.4,17.36,11.54,26.5-13.43.21-27.29-1.95-40.43,1.19l-.63.18c-5.74-9.06-9.79-19.91-16.43-27.9-24.44-.19-49.16-1-73.47.41-4.46,8.85-9.25,17.52-14.16,26.11h-.93c-13.67-.29-27.38-.73-41,.22,3.31-9.14,7.75-17.81,11.55-26.73C138.57,359.76,121.52,361.59,104.72,360Z"/></svg>