<svg id="Layer_1" data-name="Layer 1" xmlns="http://www.w3.org/2000/svg" viewBox="0 0 500 500"><defs><style>.cls-1{fill:#154dff;}</style></defs><path class="cls-1" d="M5.08,78.67c2.71-23.07,20.8-42.2,41.13-41.52q204.29,0,408.55,0c20.15-.21,37.76,19.16,40.16,42V420.61c-2.31,22.94-20,42.36-40.14,42.2q-204.78.12-409.57,0c-19.91.12-37.27-18.71-40.13-41.22V78.67M42.81,61.08C33,62.57,25.17,73.29,25.5,84.74q0,165.26,0,330.51c-.44,12.86,9.59,24.4,20.66,23.95H453.84c11.09.47,21.06-11.09,20.65-23.95q0-165.26,0-330.51c.41-12.86-9.54-24.45-20.65-23.94q-200.94,0-401.88,0A66.53,66.53,0,0,0,42.81,61.08Z"/><path class="cls-1" d="M454.4,286.39c-.57.45-1-.19-1.36-.47-3.39-2.55-6.81-5.07-10.11-7.69-1.19-.94-1.92-.92-3,.19-4.46,4.55-9,9-13.56,13.51l-69.61,69.25c-2.17,2.17-2.18,2.18-4.46.25q-12.62-10.67-25.21-21.36c-2-1.66-2-1.66-3.65.43q-9.27,11.69-18.51,23.4c-1.69,2.14-1.71,2.14-3.35-.14q-8.5-11.76-17-23.54c-1.51-2.09-1.49-2.09-2.87,0q-6.72,10-13.44,20.1c-1.61,2.42-1.61,2.41-3.47.22-8.37-10-16.78-19.93-25.1-30-1.21-1.45-1.71-1.18-2.79.08q-19.11,22.54-38.31,44.95c-1.64,1.93-1.71,1.93-3.45.12q-15-15.45-30-31a3.3,3.3,0,0,0-2.8-1.22c-.74.07-1.49,0-2.23,0H45.35v-7.12H164.58a5.2,5.2,0,0,1,4.23,1.67c8.63,9,17.38,18,26,27,1.32,1.38,2,1.57,3.36,0,12.76-15.09,25.61-30.08,38.42-45.12,1.8-2.1,1.77-2.1,3.48-.08,8.19,9.72,16.39,19.43,24.51,29.18,1.15,1.39,1.66,1.39,2.67-.15,4.67-7.13,9.44-14.21,14.19-21.3,1.41-2.11,1.42-2.11,2.94,0,5.94,8.22,11.89,16.43,17.76,24.71,1,1.41,1.57,1.59,2.74.08,5.86-7.52,11.86-14.94,17.72-22.48,1.15-1.48,1.94-1.48,3.34-.3,8.81,7.57,17.73,15,26.54,22.62,1.24,1.07,2,1.11,3.12-.11,2.69-2.81,5.53-5.49,8.28-8.24q34.91-34.68,69.78-69.36c1.8-1.78,1.79-1.78-.21-3.3l-10.27-7.79c-.41-.32-1.12-.56-.95-1.17s.86-.56,1.36-.64c8.52-1.17,17.05-2.31,25.55-3.51,1.28-.18,1.68.36,1.82,1.49,1.17,8.5,2.38,17,3.56,25.5C454.61,285.51,454.81,286.09,454.4,286.39Z"/><path class="cls-1" d="M290.32,175.45c12.65-.16,25.29.17,37.92.49,11.42.3,22.85.53,34.23,1.54,10.29.92,18.88,4.83,23.47,14.8a59,59,0,0,1,4.71,19.06c1.6,16.34,1.47,32.72,1.17,49.09-.2,10.91-.51,21.87-3.2,32.57-2.43,9.69-7.44,17.23-17.38,20.53-5.21,1.74-10.68,2-16.11,2.26-20.68.88-41.37,1.64-62.08,1.73-11.16.05-22.31-.35-33.47-.55q-12.7-.23-25.39-.75c-7.52-.3-15.05-.64-22.41-2.38-9.07-2.14-15.12-7.63-18.23-16.48-2.7-7.7-3.4-15.71-4-23.73-1-13.13-1-26.3-.71-39.45.25-10.66.62-21.35,2.77-31.83,1.19-5.78,2.94-11.46,7.07-16,5.38-6,12.37-8.35,20.12-8.88,9.85-.67,19.72-1,29.6-1.3C262.36,175.7,276.34,175.53,290.32,175.45Zm14.86,108.11a28.57,28.57,0,0,0,5.66,5.11c7.52,4.71,15,1.67,17-5.57A37.52,37.52,0,0,0,329.15,273c0-9.8-.08-19.61,0-29.41a60.34,60.34,0,0,0-1.29-12.79c-1.42-7-6.68-10.51-13.3-8.72-3.11.85-5.57,2.9-7.84,5.14-.45.44-.77,1.38-1.51,1.09s-.37-1.2-.37-1.83q0-11.88,0-23.77c0-2.94,0-2.94-3-2.95h-6.46c-2.74,0-2.75,0-2.75,2.82v84.61c0,.4,0,.81,0,1.21-.06,1.13.49,1.56,1.58,1.55,3,0,6.06,0,9.08,0,1.26,0,1.6-.61,1.61-1.75A16.1,16.1,0,0,1,305.18,283.56ZM269.62,283c0,1.91.06,3.49,0,5.07-.07,1.4.49,1.92,1.88,1.89,3-.06,5.92-.07,8.88,0,1.5,0,2-.55,2-2q0-31.62,0-63.25c0-1.55-.64-2-2.05-1.93-2.69.06-5.39.13-8.07,0-2-.12-2.65.52-2.64,2.59.08,15.11-.1,30.22.14,45.32.07,3.95-1.79,6.27-4.51,8.38a4.33,4.33,0,0,1-4.57.71c-1.57-.71-1.32-2.32-1.34-3.72,0-.47,0-.95,0-1.42,0-16.51,0-33,0-49.55,0-1.76-.53-2.39-2.3-2.31a71.25,71.25,0,0,1-7.87,0c-2.07-.13-2.61.62-2.6,2.63q.1,24.68,0,49.36a45.25,45.25,0,0,0,.88,9c.58,3,2,5.33,5,6.59,4.58,1.93,8.22-.09,11.75-2.6C266,286.39,267.32,284.44,269.62,283Zm68.16-28.62c0,7-.13,11.72,0,16.48.34,10.29,5.4,17.73,14.72,19.71,7.29,1.55,16.73-1.52,20.17-9.25,1.93-4.33,1.62-8.77,1.71-13.24,0-1.21-.84-1.35-1.8-1.35-2.69,0-5.38.09-8.06,0-1.82-.08-2.36.66-2.29,2.37a20.59,20.59,0,0,1-.54,7c-.66,2.14-1.9,3.7-4.3,3.94-3.24.34-4.82-.47-6.15-3.06a10.51,10.51,0,0,1-1.13-4.85c0-3.9.06-7.79,0-11.68,0-1.77.63-2.35,2.36-2.33,5.31.08,10.62,0,15.93,0,6.07,0,6.15,0,6-6-.1-5.55.55-11.14-.78-16.65-2.69-11.13-12.38-15.71-22.4-13.1-8.43,2.21-11.92,8.16-13.07,16.11C337.31,244.44,337.93,250.5,337.78,254.35Zm-117.49-3.26v36.07c0,2.74,0,2.74,2.63,2.75s5.12-.12,7.67,0c2.08.13,2.63-.66,2.62-2.66-.08-11.28,0-22.56,0-33.85,0-13,0-25.92,0-38.88,0-1.91.61-2.61,2.56-2.54,3.56.13,7.13,0,10.69.06,1.49,0,2-.53,2-2-.07-2.82-.07-5.65,0-8.46,0-1.4-.52-1.91-1.9-1.91q-19.37,0-38.73,0c-1.54,0-2,.64-1.94,2.06.07,2.76.09,5.51,0,8.26-.06,1.64.6,2.1,2.13,2.05,3-.08,5.92,0,8.88,0,3.47,0,3.47,0,3.47,3.37Z"/><path class="cls-1" d="M165.3,283.74c-1.93,1.7-3.42,3.15-5.05,4.43-2.94,2.33-6.26,3.68-10.1,3.09-4.13-.65-6.72-3.89-7.46-9.34a43.66,43.66,0,0,1-.39-5.82q0-25.89,0-51.77c0-2.8,0-2.84,2.78-2.85s5.52.06,8.27,0c1.76,0,2.38.66,2.36,2.38-.07,5,0,10.07,0,15.1V275c0,.74,0,1.48.05,2.21.2,2.09,1.45,2.91,3.5,2.33a9.13,9.13,0,0,0,6.07-7.9V224.3c0-2.76.06-2.81,2.82-2.82s5.78,0,8.67,0c1.44,0,2,.53,2,2q0,32.43,0,64.86c0,1.47-.54,2.07-2,2q-4.74-.06-9.48,0c-1.43,0-2.13-.5-2.05-2S165.3,285.6,165.3,283.74Z"/><path class="cls-1" d="M75.54,232.63c2.18-8.25,4.4-16.6,6.62-25,.67-2.52,1.37-5,2-7.58.25-1,.7-1.57,1.77-1.57,3.9,0,7.8,0,11.7,0,1.7,0,1.36,1,1,2.07q-3.15,10-6.29,19.95l-9.54,30.31a13,13,0,0,0-.54,4q0,16.41,0,32.83c0,2.65-.08,2.73-2.7,2.74H70.75c-2.45,0-2.63-.19-2.63-2.66,0-10.41-.05-20.82,0-31.22a25.47,25.47,0,0,0-1.21-7.91q-6.36-20.35-12.68-40.71c-.78-2.5-1.59-5-2.42-7.46-.43-1.28-.1-1.93,1.32-1.92,3.69,0,7.39,0,11.09,0,1.22,0,1.75.58,2.06,1.74,2.11,8,4.28,16.06,6.45,24.09.75,2.78,1.54,5.55,2.32,8.33a.24.24,0,0,0,.15.13S75.33,232.74,75.54,232.63Z"/><path class="cls-1" d="M133.21,256.62c-.21,6.17.38,12.35-.39,18.5-1.55,12.44-12,17.76-21.37,16.22a18,18,0,0,1-14.78-15.49C95.54,266,96,256,96.15,246.11a55.62,55.62,0,0,1,.49-9c1.22-6.89,4.16-12.53,11.2-15,9.46-3.26,21.42.4,24.23,12.25,1.56,6.6.88,13.21,1.13,19.82C133.23,255,133.21,255.82,133.21,256.62Zm-23.84-.29V272a12.59,12.59,0,0,0,.46,4.19,4.78,4.78,0,0,0,4.64,3.53c2.43.07,3.8-.86,4.79-3.22a10.1,10.1,0,0,0,.81-3.91q0-16.32,0-32.64a9.27,9.27,0,0,0-.77-3.71c-1-2.4-2.39-3.25-5-3.11a4.73,4.73,0,0,0-4.51,3.66,12.41,12.41,0,0,0-.38,3.79C109.36,245.85,109.37,251.09,109.37,256.33Z"/><path class="cls-1" d="M304.87,256.12q0-9.36,0-18.71c0-2.5,2.42-4.51,5.84-4.94a4.59,4.59,0,0,1,5.23,3.4,22,22,0,0,1,.76,5.77q0,14.28,0,28.56a25,25,0,0,1-.63,5.38c-.83,3.89-3.34,5.36-7.12,4.13-3.22-1-4.09-2.26-4.09-5.69v-17.9Z"/><path class="cls-1" d="M356.14,248.43c-6,0-6,0-6-6.09,0-2.47-.29-5,1.05-7.27a5.62,5.62,0,0,1,5.85-2.61c2.64.35,4,1.55,4.63,4,.81,3.43.62,6.93.58,10.41,0,1.1-.64,1.54-1.67,1.54Z"/><path class="cls-1" d="M230.33,166.08h-5.76a21.64,21.64,0,0,1-.36-3c-1.26,2.8-3.82,3.54-6.28,3.54-6.2,0-7.94-4.61-7.94-11.11V136.82c0-6.1,2.53-11.16,10.13-11.16,9.17,0,10.09,6.68,10.09,10.69v1.79H222.5V136c0-1.93-.24-3.72-2.36-3.72-1.76,0-2.4,1.28-2.4,3.88v20.41c0,2.71.87,3.7,2.4,3.7,1.86,0,2.5-1.45,2.5-4.72v-5.71H220v-6.46h10.33Z"/><path class="cls-1" d="M242.55,148.77v17.31H234.9V126.26h9.94c6.67,0,10,2.93,10,9.9v1.43c0,5.67-2.26,7.36-4,8.16,2.47,1.2,3.64,3,3.64,8.58,0,3.84-.06,9.65.27,11.75h-7.41c-.49-1.8-.46-7-.46-12.07,0-4.48-.51-5.24-3.43-5.24Zm0-6h1c2.56,0,3.6-.8,3.6-4.51V136.3c0-2.68-.53-4-3.35-4h-1.2Z"/><path class="cls-1" d="M279,136.91v18.48c0,7.9-3.72,11.28-10.68,11.28-6.61,0-10-3.47-10-11.21V136.71c0-7.69,4.22-11.05,10.35-11.05S279,129,279,136.91ZM266,136.05V156.4c0,2.46.84,3.75,2.56,3.75s2.59-1.17,2.59-3.79V136c0-2.48-.69-3.76-2.62-3.76C266.91,132.23,266,133.41,266,136.05Z"/><path class="cls-1" d="M285.82,166.08l-4.51-39.82h8.06c.57,7.12,1.37,20.61,1.56,26.9h.27c.81-7.8,1.76-18.64,2.6-26.9h6.59c.82,7.78,1.73,18.48,2.48,26.76h.31c.35-7.42,1.08-20.17,1.6-26.76h7.56l-5,39.82h-7.94c-.78-7-1.78-14.69-2.48-22.92h-.27c-.77,8.1-2,15.72-2.8,22.92Z"/><path class="cls-1" d="M343.09,136.91v18.48c0,7.9-3.72,11.28-10.68,11.28-6.6,0-10-3.47-10-11.21V136.71c0-7.69,4.23-11.05,10.36-11.05S343.09,129,343.09,136.91Zm-12.93-.86V156.4c0,2.46.84,3.75,2.55,3.75s2.6-1.17,2.6-3.79V136c0-2.48-.69-3.76-2.62-3.76C331.06,132.23,330.16,133.41,330.16,136.05Z"/><path class="cls-1" d="M347.2,166.08V126.26h8.48c1.26,4.86,5.25,22.89,5.57,24.64h.18c-.42-5.3-.69-12.54-.69-18.1v-6.54h7.11v39.82h-8.56c-.82-3.79-5.17-24.39-5.43-25.67h-.21c.3,4.69.54,12.61.54,18.87v6.8Z"/></svg>