<svg id="Layer_1" data-name="Layer 1" xmlns="http://www.w3.org/2000/svg" viewBox="0 0 500 500"><defs><style>.cls-1{fill:#154dff;}</style></defs><path class="cls-1" d="M134.09,4.15c7.53-.68,15.09-.51,22.64-.53h181c7.89,0,15.8-.16,23.67.57C395.45,7,428,23.07,451.31,48a142.7,142.7,0,0,1,43.32,98.23V358.36a143.75,143.75,0,0,1-12.47,54.69,140.8,140.8,0,0,1-124.54,83.34H147.43a140.82,140.82,0,0,1-98.22-43.83,142.15,142.15,0,0,1-43.79-101Q5.3,256.3,5.38,161c.06-11.38-.37-22.82,1.21-34.13A141.59,141.59,0,0,1,49,42.74,139.9,139.9,0,0,1,134.09,4.15m3.78,37.53A101.79,101.79,0,0,0,88.22,59.29a104.13,104.13,0,0,0-44.31,73c-1.07,8.18-.78,16.44-.82,24.66q0,97.05,0,194.1a104.42,104.42,0,0,0,32.77,74.8,102.52,102.52,0,0,0,74.3,32.77q101.58.08,203.15,0a102.28,102.28,0,0,0,46.78-11,104.1,104.1,0,0,0,53.16-65.47,107.34,107.34,0,0,0,3.64-28.59q0-102.08,0-204.15a104.43,104.43,0,0,0-32.78-75.3,102.53,102.53,0,0,0-73.79-32.77q-97.29-.11-194.6,0C149.77,41.36,143.8,41.2,137.87,41.68Z"/><g id="_385f63ff" data-name="#385f63ff"><path class="cls-1" d="M217.38,94.4c4.52-2.74,9.89-3.44,15.06-3.86,7.21-.14,14.76,1.56,20.41,6.26s8.78,12,9.17,19.31c.54,4.52-.72,9.39,1.34,13.64,2.73,3.61,2.05,8.5.79,12.55-1,4.51-3.85,8.27-6.52,11.92-2,3.25-2.58,7.19-4.79,10.32-.83,1.38-2.17,2.37-2.84,3.85,8.49,5.07,17.66,8.88,26.71,12.87,4.2,2,8.59,3.92,12,7.23,5,4.77,7.61,11.38,9.92,17.76a90.44,90.44,0,0,1,2.83,13.44c.46,2.18-1.77,3.47-3.3,4.5-4,2.15-8.56,3-13,3.88-8.32,1.33-16.65,2.76-25.06,3.34-1,.21-1.43-.8-1.79-1.5a74.36,74.36,0,0,0-7.57-13.74,41.53,41.53,0,0,0-15-11.92c-8.68-4.43-18.1-7.44-26.42-12.51C212,187,214,182,217.11,177.44A33.38,33.38,0,0,0,222,153c-.46-3.12-3.06-5.59-2.63-8.89.76-11.82-2.27-24.4-10.39-33.3-.83-1-2.28-1.85-2.47-3.19A23.55,23.55,0,0,1,217.38,94.4Z"/><path class="cls-1" d="M346.19,176a20.57,20.57,0,0,1,4.56-.45c17.22,0,34.43-.32,51.64-.07,3-.25,3.94,3.18,4.46,5.46.23,8.36-.06,16.72-.1,25.07-.08,14.87.09,29.73-.17,44.6-.8,41.44-.23,82.88.14,124.31.25,4.89-.05,9.78,0,14.67-.09,3.24.33,6.86-1.77,9.59-1.4,1.24-3.41,1.4-5.18,1.52-14.62.36-29.24.4-43.86.36-2.88-.25-6.07.31-8.62-1.37-2.2-1.29-2.77-4.07-2.82-6.42-.23-11.55.35-23.09.21-34.65.22-58.48-.16-117-.09-175.46A12.85,12.85,0,0,1,346.19,176Z"/><path class="cls-1" d="M266.1,247.83a27.83,27.83,0,0,1,5.77-.4c15,0,30-.07,45,.11,2.25.09,5,.16,6.42,2.21,1.42,1.83,1,4.26,1.12,6.42-.26,39.08-.24,78.15-.2,117.23.32,5.76.09,11.55.09,17.32-.08,2.78.14,5.94-1.82,8.19-2,1.77-4.85,2.08-7.44,2q-22.31.35-44.61,0c-2.52.06-5.27-.5-7-2.48-2-2.64-1.45-6.13-1.55-9.23.57-43.62.1-87.24.13-130.86.06-2.72-.63-5.57.63-8.13C262.75,248.49,264.74,248.23,266.1,247.83Z"/><path class="cls-1" d="M106.44,257.28c10.12,3.34,20.74,4.7,31.25,6.17a19.69,19.69,0,0,1,4.87.93,255.06,255.06,0,0,1-26.24-3.79C113,259.77,109.3,259.37,106.44,257.28Z"/><path class="cls-1" d="M119.54,301q15.74-4.12,31.09-9.6c-4.29,2.39-9.22,3.33-13.76,5.17C131.08,298,125.48,300.3,119.54,301Z"/><path class="cls-1" d="M184.3,298.07c11.23-.54,22.5-.37,33.74-.17,6.26,0,12.53-.1,18.78.24,3.42-.22,5.31,3.75,5,6.69-.41,27.65-.23,55.3-.08,82.95-.25,3.39.72,7.18-1.28,10.21-1.35,2.22-4.15,2.88-6.58,2.9-14.11.49-28.24.19-42.35.26-3.5-.11-7.59.39-10.29-2.36-2.53-2.79-1.82-6.83-1.93-10.28.22-28,.17-56,.11-84-.38-1.9.95-3.42,1.45-5.14A5.77,5.77,0,0,1,184.3,298.07Z"/><path class="cls-1" d="M101,322.74c16.65-.61,33.32.06,50-.12,2.06.16,4.33-.32,6.22.68a11.75,11.75,0,0,1,2.12,7c-.13,14.62-.34,29.24-.25,43.87.33,5.15,0,10.31.08,15.47-.1,3.14.31,6.7-1.85,9.29-1.78,1.65-4.34,2-6.68,2-15,.28-30,.25-45,.05-2.63.07-5.55-.42-7.32-2.56-1.76-2.32-1.51-5.33-1.56-8.06.11-19.91.08-39.82.16-59.73C96.62,327.62,97.7,323.58,101,322.74Z"/></g><g id="_1b7b8eff" data-name="#1b7b8eff"><path class="cls-1" d="M389.22,94.84c4.31-1.55,8.57-3.47,13.13-4.1a6.53,6.53,0,0,1,4.51,3.56c.4,1.49-.13,3-.38,4.5-3.45,15.71-6.11,31.58-9.55,47.28-.24,2.66-3.06,4.74-5.62,3.58-6.4-4.12-11.82-9.54-17.6-14.43-8.56,10.23-17.49,20.18-26.64,29.89-6.69,6.34-12.75,13.3-19.4,19.68q-9.35,9.09-19,17.87c-.66.77-1.7.51-2.59.54-.57-3-1-6.26-3.28-8.58a519.75,519.75,0,0,0,48.9-49.21c5.05-5.5,9.72-11.39,15-16.68-4.29-3.08-8.06-6.81-12.08-10.21-2-1.83-4.19-3.63-5.2-6.17-.86-2.86,2.37-4.09,4.41-5C365.51,102.89,377.44,99.06,389.22,94.84Z"/><path class="cls-1" d="M161,112.55c4.76-3.1,10.55-3.93,16.1-4.35,8.16-.2,16.71,1.62,23.23,6.76,6.27,5,9.43,12.91,10.44,20.67.07,4.93.08,9.86.07,14.8.88.87,2.09,1.57,2.4,2.86a24.24,24.24,0,0,1-2.44,18.31c-1.28,3.06-3.78,5.38-5.26,8.32a61.1,61.1,0,0,1-5,10.88c-.85,1.51-2.46,2.49-3.07,4.13a3,3,0,0,0,1.4,1.47c10.06,5.73,21,9.62,31.41,14.67,3.44,1.7,7.1,3.22,9.85,6a33.22,33.22,0,0,1,7.16,10.14,83.13,83.13,0,0,1,7.26,25.65c.47,1.87-1,3.41-2.53,4.17-5.7,3.1-12.28,3.76-18.55,5-28.57,4.77-57.82,6.23-86.64,3a33.22,33.22,0,0,1-4.33-.63,19.69,19.69,0,0,0-4.87-.93c-10.51-1.47-21.13-2.83-31.25-6.17a5.9,5.9,0,0,1-3.17-6.25c1.57-11.32,5.12-22.69,12.2-31.82,5.17-5.69,12.57-8.42,19.37-11.61,8.76-3.88,17.48-7.86,26-12.18-1.08-1.94-2.85-3.38-3.89-5.35a78.52,78.52,0,0,1-4-8.52c-2.14-4.91-6-8.9-7.72-14-1.47-4.12-2.95-8.69-1.57-13,.94-2.8,4.41-4.87,3.11-8.2a54.43,54.43,0,0,1,1.52-18.07A27.78,27.78,0,0,1,161,112.55Z"/><path class="cls-1" d="M198.88,274.5c4.1,0,8.15-.61,12.21-.91-8.07,5.28-17,9.17-25.63,13.39a388.62,388.62,0,0,1-44.12,17.83c-12.34,3.95-24.8,7.92-37.71,9.42a12.52,12.52,0,0,1-4.65-.17,9.82,9.82,0,0,1-1.49-6.65c.17-1.88,2.44-1.92,3.84-2.38,6.11-1.15,12.13-2.75,18.21-4,5.94-.71,11.54-3,17.33-4.43,4.54-1.84,9.47-2.78,13.76-5.17,11.82-4.69,23.52-9.76,34.93-15.4C189.81,274.5,194.46,275.08,198.88,274.5Z"/></g></svg>