<svg id="Layer_1" data-name="Layer 1" xmlns="http://www.w3.org/2000/svg" viewBox="0 0 500 500"><defs><style>.cls-1{fill:#154dff;}</style></defs><path class="cls-1" d="M453.46,287c-1.84-4.51-2.82-9.44-5.58-13.57-3.54-5,3.16-8.77,5.11-12.92-2.34-2.34-4.7-4.65-7-7-3.55,1.76-6.07,5.62-10.07,6.28-4.59-1.76-8.77-4.78-13.73-5.7-6.05-.91-4.08-8.46-5.57-12.74-3.36,0-6.71,0-10.06,0-1.14,3.83-.13,8.67-2.94,11.76-4.75,1.72-9.74,3-14,5.8-5,3-8.22-4.14-12.47-5.19-2.41,2.16-4.59,4.59-6.94,6.82,1.94,3.47,5.68,6.09,6.36,10.11-1.95,4.6-4.81,8.88-5.79,13.88-1.07,5.79-8.44,3.84-12.63,5.28-.07,3.38-.11,6.78,0,10.16,4.27,1.3,11.75-.53,12.66,5.45.91,5,4.05,9.21,5.73,13.89-.92,3.78-4.25,6.47-6.34,9.68,2.19,2.58,4.77,4.79,7.06,7.28,4-1.78,7.57-8.36,12.41-5.41a42.3,42.3,0,0,0,11.46,4.81c5.93,1,4,8.43,5.39,12.69q5.07.09,10.14,0c1.42-4.23-.49-11.63,5.36-12.67,5-.92,9.27-3.92,13.9-5.76,4,.74,6.58,4.44,10,6.36,2.33-2.47,4.92-4.68,7.06-7.31-2.06-3.22-5.42-5.88-6.33-9.67,1.68-4.67,4.8-8.87,5.73-13.89.92-6,8.46-4.07,12.74-5.51,0-3.34,0-6.7,0-10.05C461.34,288.6,456.63,289.57,453.46,287Zm-18.15,24.34a28.86,28.86,0,0,1-49.65-29.12,28.86,28.86,0,1,1,49.65,29.12Z"/><path class="cls-1" d="M406.64,273.83A21.64,21.64,0,0,1,429.5,307c-5.43,8.36-17,11.93-26.16,7.93a21.64,21.64,0,0,1,3.3-41.09Z"/><g id="_000000ff" data-name="#000000ff"><path class="cls-1" d="M156.56,116.47a14.43,14.43,0,0,0-10.88-5.35H92a14.27,14.27,0,0,0-14,14v53.68a14.38,14.38,0,0,0,5.33,10.85,14.64,14.64,0,0,0,9.51,3.15q26.19,0,52.37,0a14.34,14.34,0,0,0,11.33-5.33A14.7,14.7,0,0,0,159.7,178V126A14.68,14.68,0,0,0,156.56,116.47Zm-28.06,20c-1.41,0-2.82,0-4.22,0a4,4,0,0,0-2.5.74,2.59,2.59,0,0,0-.82,1.54,9.25,9.25,0,0,0-.12,1.9c0,1.41,0,2.81,0,4.22h7.4l-1,7.49c-2.15,0-4.3,0-6.45,0,0,6.39,0,12.79,0,19.19h-7.73V152.4h-6.46c0-2.5,0-5,0-7.49h6.45c0-1.88,0-3.75,0-5.63a12,12,0,0,1,.83-4.46,8.19,8.19,0,0,1,5.43-4.85,12.1,12.1,0,0,1,3.17-.48h.59c1.8,0,3.59.12,5.37.29C128.51,132,128.5,134.26,128.5,136.49Z"/><path class="cls-1" d="M220.45,144.3l10.86,6.25-10.86,6.25Z"/><path class="cls-1" d="M260.27,115.85a14.42,14.42,0,0,0-10.19-4.73H196.25a14.36,14.36,0,0,0-10.86,5.34,14.7,14.7,0,0,0-3.15,9.53q0,26.17,0,52.34a14.35,14.35,0,0,0,5.53,11.49,14.69,14.69,0,0,0,9.31,3q25.62,0,51.23,0a16.75,16.75,0,0,0,7.34-1.33,14.36,14.36,0,0,0,8.27-12.7V125.13A14.44,14.44,0,0,0,260.27,115.85Zm-15.09,41a22.81,22.81,0,0,1-.61,3.86,5.23,5.23,0,0,1-4,3.66,48.79,48.79,0,0,1-5.92.55c-5,.21-10,.28-15,.16-3.19-.09-6.39-.17-9.56-.53a9.37,9.37,0,0,1-2.4-.53,5.31,5.31,0,0,1-2.68-2.54,8.7,8.7,0,0,1-.62-2.26,52.74,52.74,0,0,1-.52-6c-.1-2.32-.05-4.64.08-6.95a38.85,38.85,0,0,1,.5-4.69,8.52,8.52,0,0,1,.43-1.65,5.32,5.32,0,0,1,3.1-3,10,10,0,0,1,2-.41c2.86-.32,5.74-.4,8.62-.49q7.59-.19,15.18.11c1.8.08,3.6.18,5.39.39a9.59,9.59,0,0,1,2.43.53,5.22,5.22,0,0,1,3,3.32,21.21,21.21,0,0,1,.63,3.88A72.63,72.63,0,0,1,245.18,156.86Z"/><path class="cls-1" d="M159,225.15a14.2,14.2,0,0,0-9.06-9.06,18.35,18.35,0,0,0-5.8-.74c-17.2,0-34.4,0-51.61,0a14.27,14.27,0,0,0-14.48,14v53.88a14.29,14.29,0,0,0,14,13.79h53.67a14.37,14.37,0,0,0,12.43-7.75,15.89,15.89,0,0,0,1.58-7.49V233.14C159.7,230.47,159.82,227.72,159,225.15Zm-22.79,28.36a16.39,16.39,0,0,1-10-3.39q0,7.15,0,14.31a12.15,12.15,0,0,1-1.42,5.72,12.41,12.41,0,0,1-5.84,5.43,12.54,12.54,0,0,1-9.53.27,12.32,12.32,0,0,1-5.85-4.64,12.11,12.11,0,0,1-.7-12.33,12.35,12.35,0,0,1,6-5.58,12.57,12.57,0,0,1,6.85-.91q0,3.27,0,6.54a5.82,5.82,0,1,0,3.83,7,11.82,11.82,0,0,0,.18-2.85q0-12.92,0-25.84h6.4c.08.35,0,.72.1,1.07a10,10,0,0,0,9.93,8.83C136.17,249.24,136.18,251.38,136.17,253.51Z"/><path class="cls-1" d="M236.93,250.09a12.35,12.35,0,1,0-9.25,17.74,12.35,12.35,0,0,0,9.25-17.74Zm-4.36,7.57a7,7,0,1,1-.21-4.7A7,7,0,0,1,232.57,257.66Z"/><path class="cls-1" d="M241,242a2.61,2.61,0,1,1-3.16-1.66A2.61,2.61,0,0,1,241,242Z"/><path class="cls-1" d="M258.4,218.35a14.69,14.69,0,0,0-9.35-3q-26,0-52,0a14.68,14.68,0,0,0-9.72,3.33,14.36,14.36,0,0,0-5.11,11.15q0,26.16,0,52.31a14.7,14.7,0,0,0,3.15,9.56,14.4,14.4,0,0,0,10.87,5.34h53.88a14.31,14.31,0,0,0,13.79-13.87V229.36A14.37,14.37,0,0,0,258.4,218.35ZM245,265.07a17.93,17.93,0,0,1-.09,2.32,8.52,8.52,0,0,1-8.43,7.28H215.34a8.52,8.52,0,0,1-8.53-8.43V245.06a8.52,8.52,0,0,1,7.23-8.42,9.08,9.08,0,0,1,1.47-.1h20.92a8.45,8.45,0,0,1,4.86,1.52,8.57,8.57,0,0,1,3.52,5.47,15.2,15.2,0,0,1,.14,2.78Z"/></g><path class="cls-1" d="M5.09,75.09A15.6,15.6,0,0,1,21,59.23q229.2-.12,458.38,0A15.34,15.34,0,0,1,494.8,73.49c.33,16.92.05,33.87.13,50.8-9.46.12-18.91.09-28.36,0-.17-10.12.08-20.24,0-30.38.25-4-3.89-6.7-7.58-6.23q-209.59.08-419.19.05c-4-.13-6.81,4-6.22,7.72q.12,108.39,0,216.77a6.65,6.65,0,0,0,7.74,7.41q126.56.07,253.13,0c-.33,22.45.31,44.94-.33,67.39-91.06-.14-182.14.05-273.21-.12-8.27.31-16-6.67-15.81-15.11Q5,223.48,5.09,75.09Z"/><path class="cls-1" d="M477.79,159.13c-44.78.07-89.59-.3-134.34.18-8.66.77-14.94,9.31-14.27,17.77q0,123.28,0,246.59c-.61,9.81,8.71,17.72,18.19,17.12,43.49,0,87,.13,130.44-.06,9.21.22,17.35-7.86,17.09-17.09q.14-123.25,0-246.53C495.59,167.63,487.54,158.42,477.79,159.13Zm-89,18.62c14.94-.58,30-.22,44.91-.17,4.87-.49,6.91,7,1.53,8-15.07.56-30.21.38-45.28.12C384.88,186.24,384,178.77,388.75,177.75ZM425.5,420.26c-1.35,10.89-16.68,15.18-23.69,7-6.45-6.44-3.81-18.13,4.28-21.82C415.62,400.62,427.92,409.75,425.5,420.26ZM481.21,211.7q0,87.87,0,175.77c.11,3.2-.72,8-5,7.51-42.43.27-84.87.07-127.28.18-2.66.47-4.46-1.48-6.31-3,.19-60.71,0-121.41.08-182.13-.77-4.28,4.22-6.32,7.75-5.93,41.36.1,82.74,0,124.11.08A6.16,6.16,0,0,1,481.21,211.7Z"/><path class="cls-1" d="M194.23,440.1c-14.66-1-16.51-24.29-2.06-27.31,34-.91,68.09-.2,102.13-.37-.19,9.37,0,18.73-.27,28.1C260.76,440.18,227.45,441,194.23,440.1Z"/></svg>