<svg id="Layer_1" data-name="Layer 1" xmlns="http://www.w3.org/2000/svg" viewBox="0 0 500 500"><defs><style>.cls-1{fill:#154dff;}</style></defs><path class="cls-1" d="M196.53,6.87a227.67,227.67,0,0,1,152.8,19.67C400.44,52.6,441,98.68,460,152.82a225.31,225.31,0,0,1,13,78.9Q455.9,214.86,438.78,198c-1.77-1.55-1.81-4-2.29-6.14C425.6,133.52,386,81.74,333,55.3A194.61,194.61,0,0,0,209.83,37.86c-54.68,9.93-103.92,44.92-131.89,92.85a194.05,194.05,0,0,0,22,226.56c-7.92,7.78-15.57,15.83-23.78,23.3A230.65,230.65,0,0,1,29.25,299C9.05,237.43,16.89,167.36,50.62,112,82.22,59,136.19,19.92,196.53,6.87Z"/><path class="cls-1" d="M162.25,85.1c3-3.45,9.25-2.48,11.11,1.72q35,62,69.94,124.05A22.63,22.63,0,0,1,257.52,215q43.58-18.61,87.14-37.27c3.42-1.42,7.35-3.69,11-1.76a8.18,8.18,0,0,1,3.94,10.89c-1.78,3.83-6.3,4.72-9.76,6.37-28.71,12.33-57.52,24.39-86.12,36.92-.65,8.61-7.88,16.19-16.58,16.7a18,18,0,0,1-19.08-14c-1.42-5.33.33-10.91,3.4-15.32Q196.6,155.7,161.72,93.8C160,91.17,159.91,87.38,162.25,85.1Z"/><path class="cls-1" d="M381.19,254.72c16.62-16.72,33.45-33.26,50.29-49.78,16.66,16.69,33.61,33.11,50.28,49.81-6.36,0-12.72,0-19.09,0q0,121.8,0,243.58-31.26,0-62.5,0,.12-121.79,0-243.6C393.87,254.74,387.53,254.75,381.19,254.72Z"/><path class="cls-1" d="M330.24,250.21c.73-1.21,1.94-.93,2.69.1,16.36,16.11,32.62,32.35,49,48.43-6.37-.09-12.74,0-19.12-.05-.05,66.54.15,133.09-.09,199.64-20.79.06-41.57-.16-62.34.11q-.18-99.84,0-199.67c-6.39-.16-12.78-.07-19.16-.06Q305.74,274.44,330.24,250.21Z"/><path class="cls-1" d="M181.31,342.71c16.8-16.58,33.48-33.27,50.41-49.72,16.68,16.65,33.56,33.1,50.24,49.75-6.36,0-12.71,0-19.06,0q0,77.82,0,155.62c-20.83,0-41.65-.05-62.48,0q.07-77.82,0-155.65Q190.87,342.77,181.31,342.71Z"/><path class="cls-1" d="M131.76,340.14C148.41,356.86,165.44,373.21,182,390c-6.3.07-12.59,0-18.89,0-.13,36.11.13,72.23-.13,108.33-20.79.05-41.58-.21-62.36.14-.28-36.16-.05-72.31-.11-108.46-6.31,0-12.62,0-18.93,0C98.08,373.13,115.1,356.81,131.76,340.14Z"/><g id="_000000ff" data-name="#000000ff"><path class="cls-1" d="M275.63,87.07h.49c3.23,2.19,6.09,4.91,9.17,7.3a1.92,1.92,0,0,1,.29,3c-2.63,2.33-5.35,4.56-8,6.85a3.12,3.12,0,0,1-1.52.87c-.64,0-.72-.78-.76-1.28,0-1.32,0-2.65-.06-4a39.08,39.08,0,0,0-19.36,5.25,39.18,39.18,0,0,0-6.32,63.4,39.28,39.28,0,0,0,43.39,5.69,19.61,19.61,0,0,1,2.73-1.32,3.75,3.75,0,0,1,4,5.89,8.47,8.47,0,0,1-2.91,1.93A47.1,47.1,0,0,1,277,185.84h-2.65A49.66,49.66,0,0,1,262.58,184a46.73,46.73,0,0,1,12.59-91.68C275.37,90.61,274.65,88.62,275.63,87.07Z"/><path class="cls-1" d="M297.68,99.51c2.13-.82,3.93.88,5.54,2a3.76,3.76,0,0,1,1.35,4.29,3.71,3.71,0,0,1-4.05,2.44c-1.33-.12-2.3-1.14-3.37-1.81a4.06,4.06,0,0,1-2-2.79A3.78,3.78,0,0,1,297.68,99.51Z"/><path class="cls-1" d="M308.67,109.35a3.85,3.85,0,0,1,4.07,1.55,20.82,20.82,0,0,1,1.86,2.79,3.75,3.75,0,0,1-6.43,3.71,20.7,20.7,0,0,1-2-3A3.77,3.77,0,0,1,308.67,109.35Z"/><path class="cls-1" d="M266.89,111.31a.88.88,0,0,1,1.2-.52q15.56,5.26,31.09,10.56a.93.93,0,0,1,.77,1.21c-.43,1.31-.86,2.62-1.34,3.91-.42.81-1.38.28-2,.13-.85,2.53-1.67,5.07-2.59,7.57a6.56,6.56,0,0,1-4.83,4.09l-9.43,2.11c-.24.69-.48,1.39-.71,2.09,2,2.47,4.12,4.93,6.17,7.4a7.62,7.62,0,0,1,1.69,2.73,6.79,6.79,0,0,1-.36,3.62c-.72,2.17-1.47,4.33-2.2,6.49.63.22,1.74.42,1.51,1.34-.38,1.31-.86,2.59-1.3,3.88a.92.92,0,0,1-1.33.49l-31.09-10.58a.87.87,0,0,1-.65-1.13c.44-1.31.83-2.63,1.34-3.92.4-.82,1.38-.34,2-.1,1-2.57,1.59-5.3,2.85-7.75a6.43,6.43,0,0,1,4.2-2.94c3.17-.73,6.33-1.42,9.5-2.14.24-.7.48-1.39.71-2.08l-6.16-7.4a7.8,7.8,0,0,1-1.67-2.62,6.8,6.8,0,0,1,.42-4c.8-2.41,1.64-4.81,2.44-7.22-.62-.21-1.69-.41-1.51-1.29.37-1.33.85-2.63,1.31-3.93m3.13,6.22c-.82,2.46-1.68,4.91-2.5,7.37-.25.84-.64,1.89.05,2.63,2.4,2.93,4.84,5.83,7.27,8.73a1.62,1.62,0,0,1,.44,1.54c-.36,1.23-.81,2.44-1.21,3.66a1.65,1.65,0,0,1-1.27,1.23l-10.1,2.25a3.68,3.68,0,0,0-2.75,2.27c-.78,2.14-1.48,4.3-2.22,6.46q11.83,4,23.66,8c.73-2.16,1.48-4.31,2.2-6.47.24-.82.59-1.84-.09-2.55-2.45-3-5-6-7.44-9-.77-1,.14-2.27.4-3.33.44-1,.48-2.56,1.78-2.85,3.42-.78,6.85-1.51,10.28-2.3a3.6,3.6,0,0,0,2.65-2.33c.87-2.44,1.67-4.9,2.51-7.34Q281.85,121.55,270,117.53Z"/><path class="cls-1" d="M315.62,122.26A3.78,3.78,0,0,1,320,124.9c.44,1.69,1.39,3.55.46,5.25a3.78,3.78,0,0,1-5.74,1.19c-1.33-1.09-1.45-2.93-1.94-4.45A3.76,3.76,0,0,1,315.62,122.26Z"/><path class="cls-1" d="M317.73,136.72a3.78,3.78,0,0,1,4.4,3.2,27.54,27.54,0,0,1-.13,3.4,3.75,3.75,0,0,1-7.45.27,25.76,25.76,0,0,1,.12-3.4A3.78,3.78,0,0,1,317.73,136.72Z"/><path class="cls-1" d="M314.67,151.06a3.79,3.79,0,0,1,4.47,2.82c.41,1.51-.48,2.9-1,4.25a4.11,4.11,0,0,1-2.78,2.64,3.76,3.76,0,0,1-4.58-2.91c-.32-1.58.62-3,1.16-4.37A3.9,3.9,0,0,1,314.67,151.06Z"/><path class="cls-1" d="M307.14,163.58c3.09-.85,5.82,3.07,3.95,5.66-1.25,1.4-2.38,3.34-4.4,3.64a3.77,3.77,0,0,1-4.27-4c.07-1.61,1.43-2.64,2.39-3.77A4.16,4.16,0,0,1,307.14,163.58Z"/></g><path class="cls-1" d="M121.35,110.94a3.19,3.19,0,0,0-.38.32,7.79,7.79,0,0,0-1,1.11,7.43,7.43,0,1,0,1.35-1.43Z"/><path class="cls-1" d="M97.14,156.93a7.55,7.55,0,0,0-2.06,3,7.34,7.34,0,0,0,4.37,9.44,7.39,7.39,0,0,0,9.43-4.37,7.35,7.35,0,0,0-11.74-8.06Z"/><path class="cls-1" d="M86,207.25a7.34,7.34,0,1,0,11.93,6.37,7.3,7.3,0,0,0-6.63-8A7.21,7.21,0,0,0,86,207.25Z"/><path class="cls-1" d="M87.81,259.26a7.37,7.37,0,1,0,3.72-1.81A7.34,7.34,0,0,0,87.81,259.26Z"/><path class="cls-1" d="M103.47,308.51a7.34,7.34,0,0,0,7.84,12.25,7.35,7.35,0,1,0-6.2-13.33A6.3,6.3,0,0,0,103.47,308.51Z"/></svg>